<?xml version="1.0" encoding="UTF-8" standalone="no"?>
<!-- Created with Inkscape (http://www.inkscape.org/) -->

<svg
   xmlns:dc="http://purl.org/dc/elements/1.1/"
   xmlns:cc="http://creativecommons.org/ns#"
   xmlns:rdf="http://www.w3.org/1999/02/22-rdf-syntax-ns#"
   xmlns:svg="http://www.w3.org/2000/svg"
   xmlns="http://www.w3.org/2000/svg"
   xmlns:sodipodi="http://sodipodi.sourceforge.net/DTD/sodipodi-0.dtd"
   xmlns:inkscape="http://www.inkscape.org/namespaces/inkscape"
   width="420"
   height="35"
   id="svg3016"
   version="1.1"
   inkscape:version="0.48.3.1 r9886"
   sodipodi:docname="digits.svg">
  <defs
     id="defs3018" />
  <sodipodi:namedview
     id="base"
     pagecolor="#ffffff"
     bordercolor="#666666"
     borderopacity="1.0"
     inkscape:pageopacity="0.0"
     inkscape:pageshadow="2"
     inkscape:zoom="3.0914286"
     inkscape:cx="303.12897"
     inkscape:cy="30.439002"
     inkscape:document-units="px"
     inkscape:current-layer="layer1"
     showgrid="false"
     showguides="true"
     inkscape:guide-bbox="true"
     inkscape:window-width="1215"
     inkscape:window-height="776"
     inkscape:window-x="65"
     inkscape:window-y="24"
     inkscape:window-maximized="1">
    <sodipodi:guide
       orientation="1,0"
       position="35.25878,28.465804"
       id="guide3024" />
    <sodipodi:guide
       orientation="1,0"
       position="69.547135,39.140481"
       id="guide3026" />
    <sodipodi:guide
       orientation="1,0"
       position="104.80591,35.90573"
       id="guide3028" />
    <sodipodi:guide
       orientation="1,0"
       position="140.0647,57.578558"
       id="guide3030" />
    <sodipodi:guide
       orientation="1,0"
       position="175,38.817006"
       id="guide3051" />
    <sodipodi:guide
       orientation="1,0"
       position="210.25878,2.9112754"
       id="guide3053" />
    <sodipodi:guide
       orientation="1,0"
       position="245.19409,39.140481"
       id="guide3055" />
    <sodipodi:guide
       orientation="1,0"
       position="279.80591,53.696858"
       id="guide3057" />
    <sodipodi:guide
       orientation="1,0"
       position="315.0647,82.809612"
       id="guide3059" />
    <sodipodi:guide
       orientation="1,0"
       position="350,35.90573"
       id="guide4164" />
    <sodipodi:guide
       orientation="1,0"
       position="384.9353,75.04621"
       id="guide4166" />
  </sodipodi:namedview>
  <metadata
     id="metadata3021">
    <rdf:RDF>
      <cc:Work
         rdf:about="">
        <dc:format>image/svg+xml</dc:format>
        <dc:type
           rdf:resource="http://purl.org/dc/dcmitype/StillImage" />
        <dc:title />
      </cc:Work>
    </rdf:RDF>
  </metadata>
  <g
     inkscape:label="Layer 1"
     inkscape:groupmode="layer"
     id="layer1"
     transform="translate(0,-1017.3622)">
    <g
       style="font-size:40px;font-style:normal;font-variant:normal;font-weight:normal;font-stretch:normal;line-height:125%;letter-spacing:0px;word-spacing:0px;fill:#ffffff;fill-opacity:1;stroke:#000000;stroke-width:2;stroke-miterlimit:4;stroke-opacity:1;stroke-dasharray:none;font-family:Ubuntu;-inkscape-font-specification:Ubuntu"
       id="text3061">
      <path
         d="m 28.152976,1035.8527 c -2.1e-5,4.6667 -0.893354,8.2533 -2.68,10.76 -1.760017,2.48 -4.200015,3.72 -7.32,3.72 -3.120008,0 -5.573339,-1.24 -7.36,-3.72 -1.7600023,-2.5067 -2.6400015,-6.0933 -2.6400001,-10.76 -1.4e-6,-2.32 0.2266651,-4.3733 0.68,-6.16 0.4799975,-1.7866 1.1599968,-3.2933 2.0400001,-4.52 0.879995,-1.2266 1.933327,-2.16 3.16,-2.8 1.226658,-0.64 2.59999,-0.96 4.12,-0.96 3.119985,0 5.559983,1.2534 7.32,3.76 1.786646,2.48 2.679979,6.04 2.68,10.68 m -6.08,0 c -1.5e-5,-1.3866 -0.06668,-2.64 -0.2,-3.76 -0.133348,-1.1466 -0.346681,-2.1333 -0.64,-2.96 -0.293348,-0.8266 -0.693347,-1.4666 -1.2,-1.92 -0.506679,-0.4533 -1.133346,-0.68 -1.88,-0.68 -0.746677,0 -1.373343,0.2267 -1.88,0.68 -0.480009,0.4534 -0.880009,1.0934 -1.2,1.92 -0.293341,0.8267 -0.506675,1.8134 -0.64,2.96 -0.133341,1.12 -0.200008,2.3734 -0.2,3.76 -8e-6,1.3867 0.06666,2.6533 0.2,3.8 0.133325,1.1467 0.346659,2.1333 0.64,2.96 0.319991,0.8267 0.719991,1.4667 1.2,1.92 0.506657,0.4533 1.133323,0.68 1.88,0.68 0.746654,0 1.373321,-0.2267 1.88,-0.68 0.506653,-0.4533 0.906652,-1.0933 1.2,-1.92 0.293319,-0.8267 0.506652,-1.8133 0.64,-2.96 0.133318,-1.1467 0.199985,-2.4133 0.2,-3.8"
         style="font-weight:bold;fill:#ffffff;fill-opacity:1;stroke:#000000;stroke-width:2;stroke-miterlimit:4;stroke-opacity:1;stroke-dasharray:none;-inkscape-font-specification:Ubuntu Bold"
         id="path3186"
         inkscape:connector-curvature="0" />
    </g>
    <g
       style="font-size:40px;font-style:normal;font-variant:normal;font-weight:normal;font-stretch:normal;line-height:125%;letter-spacing:0px;word-spacing:0px;fill:#ffffff;fill-opacity:1;stroke:#000000;stroke-width:2;stroke-miterlimit:4;stroke-opacity:1;stroke-dasharray:none;font-family:Ubuntu;-inkscape-font-specification:Ubuntu"
       id="text3061-1">
      <path
         d="m 46.502774,1028.3726 c 0.77333,-0.3199 1.573329,-0.6799 2.4,-1.08 0.853327,-0.4266 1.679993,-0.8799 2.48,-1.36 0.799992,-0.5066 1.559991,-1.0266 2.28,-1.56 0.746656,-0.5599 1.413322,-1.1466 2,-1.76 l 4.16,0 0,27.72 -5.96,0 0,-19.96 c -0.800009,0.5334 -1.693342,1.0267 -2.68,1.48 -0.986673,0.4267 -1.946672,0.8001 -2.88,1.12 l -1.8,-4.6"
         style="font-weight:bold;fill:#ffffff;fill-opacity:1;stroke:#000000;stroke-width:2;stroke-miterlimit:4;stroke-opacity:1;stroke-dasharray:none;-inkscape-font-specification:Ubuntu Bold"
         id="path3183"
         inkscape:connector-curvature="0" />
    </g>
    <g
       style="font-size:40px;font-style:normal;font-variant:normal;font-weight:normal;font-stretch:normal;line-height:125%;letter-spacing:0px;word-spacing:0px;fill:#ffffff;fill-opacity:1;stroke:#000000;stroke-width:2;stroke-miterlimit:4;stroke-opacity:1;stroke-dasharray:none;font-family:Ubuntu;-inkscape-font-specification:Ubuntu"
       id="text3061-0">
      <path
         d="m 96.972568,1029.8926 c -1.9e-5,1.0134 -0.200019,1.9867 -0.6,2.92 -0.400018,0.9334 -0.920018,1.8401 -1.56,2.72 -0.640017,0.8534 -1.360016,1.6801 -2.16,2.48 -0.800014,0.8001 -1.58668,1.5601 -2.36,2.28 -0.400012,0.3734 -0.840012,0.8001 -1.32,1.28 -0.453344,0.4534 -0.893344,0.92 -1.32,1.4 -0.426676,0.48 -0.813343,0.9334 -1.16,1.36 -0.320009,0.4 -0.520008,0.7334 -0.6,1 l 11.92,0 0,5 -18.48,0 c -0.05333,-0.2933 -0.08,-0.6666 -0.08,-1.12 -2e-6,-0.4533 -2e-6,-0.7733 0,-0.96 -2e-6,-1.28 0.199998,-2.4533 0.6,-3.52 0.426664,-1.0666 0.97333,-2.0533 1.64,-2.96 0.666662,-0.9333 1.413328,-1.7999 2.24,-2.6 0.853326,-0.7999 1.693325,-1.5999 2.52,-2.4 0.639991,-0.6133 1.23999,-1.1866 1.8,-1.72 0.559989,-0.5599 1.053322,-1.0933 1.48,-1.6 0.426654,-0.5333 0.759987,-1.0533 1,-1.56 0.239987,-0.5333 0.359987,-1.0666 0.36,-1.6 -1.3e-5,-1.1733 -0.333346,-1.9999 -1,-2.48 -0.666678,-0.4799 -1.493344,-0.7199 -2.48,-0.72 -0.720009,10e-5 -1.400009,0.1201 -2.04,0.36 -0.613341,0.2134 -1.186673,0.4801 -1.72,0.8 -0.506672,0.2934 -0.946672,0.6001 -1.32,0.92 -0.373338,0.2934 -0.653338,0.5334 -0.84,0.72 l -2.96,-4.16 c 1.173331,-1.0933 2.53333,-1.9866 4.08,-2.68 1.573327,-0.7199 3.253325,-1.0799 5.04,-1.08 1.626655,10e-5 3.026653,0.1867 4.2,0.56 1.173318,0.3734 2.133317,0.9067 2.88,1.6 0.773315,0.6667 1.333315,1.4934 1.68,2.48 0.373314,0.9601 0.559981,2.0534 0.56,3.28"
         style="font-weight:bold;fill:#ffffff;fill-opacity:1;stroke:#000000;stroke-width:2;stroke-miterlimit:4;stroke-opacity:1;stroke-dasharray:none;-inkscape-font-specification:Ubuntu Bold"
         id="path3180"
         inkscape:connector-curvature="0" />
    </g>
    <g
       style="font-size:40px;font-style:normal;font-variant:normal;font-weight:normal;font-stretch:normal;line-height:125%;letter-spacing:0px;word-spacing:0px;fill:#ffffff;fill-opacity:1;stroke:#000000;stroke-width:2;stroke-miterlimit:4;stroke-opacity:1;stroke-dasharray:none;font-family:Ubuntu;-inkscape-font-specification:Ubuntu"
       id="text3061-3">
      <path
         d="m 121.68236,1050.3327 c -0.72001,0 -1.48,-0.053 -2.28,-0.16 -0.8,-0.08 -1.57334,-0.2 -2.32,-0.36 -0.74667,-0.16 -1.42667,-0.3334 -2.04,-0.52 -0.61333,-0.1867 -1.09333,-0.36 -1.44,-0.52 l 1.16,-4.96 c 0.69333,0.2933 1.57333,0.6133 2.64,0.96 1.09333,0.32 2.44,0.48 4.04,0.48 1.83999,0 3.18666,-0.3467 4.04,-1.04 0.85332,-0.6934 1.27999,-1.6267 1.28,-2.8 -1e-5,-0.72 -0.16001,-1.32 -0.48,-1.8 -0.29334,-0.5067 -0.70668,-0.9067 -1.24,-1.2 -0.53334,-0.32 -1.17334,-0.5334 -1.92,-0.64 -0.72001,-0.1334 -1.49334,-0.2 -2.32,-0.2 l -2.32,0 0,-4.8 2.64,0 c 0.58666,0 1.14666,-0.053 1.68,-0.16 0.55999,-0.1067 1.05332,-0.28 1.48,-0.52 0.42666,-0.2667 0.75999,-0.6133 1,-1.04 0.26666,-0.4533 0.39999,-1.0133 0.4,-1.68 -1e-5,-0.5067 -0.10668,-0.9467 -0.32,-1.32 -0.21334,-0.3733 -0.49334,-0.68 -0.84,-0.92 -0.32001,-0.24 -0.70668,-0.4133 -1.16,-0.52 -0.42667,-0.1333 -0.86667,-0.2 -1.32,-0.2 -1.14667,0 -2.21334,0.1733 -3.2,0.52 -0.96,0.3467 -1.84,0.7733 -2.64,1.28 l -2.12,-4.36 c 0.42667,-0.2667 0.92,-0.5467 1.48,-0.84 0.58667,-0.2933 1.22667,-0.56 1.92,-0.8 0.69333,-0.24 1.42666,-0.44 2.2,-0.6 0.79999,-0.16 1.63999,-0.24 2.52,-0.24 1.62666,0 3.02666,0.2 4.2,0.6 1.19999,0.3733 2.18665,0.92 2.96,1.64 0.77332,0.6933 1.34665,1.52 1.72,2.48 0.37332,0.9333 0.55998,1.96 0.56,3.08 -2e-5,1.0933 -0.30668,2.16 -0.92,3.2 -0.61335,1.0133 -1.44001,1.7866 -2.48,2.32 1.43999,0.5866 2.54665,1.4666 3.32,2.64 0.79998,1.1466 1.19998,2.5333 1.2,4.16 -2e-5,1.28 -0.21335,2.4666 -0.64,3.56 -0.42668,1.0666 -1.09335,2 -2,2.8 -0.90668,0.7733 -2.06668,1.3866 -3.48,1.84 -1.38668,0.4266 -3.04001,0.64 -4.96,0.64"
         style="font-weight:bold;fill:#ffffff;fill-opacity:1;stroke:#000000;stroke-width:2;stroke-miterlimit:4;stroke-opacity:1;stroke-dasharray:none;-inkscape-font-specification:Ubuntu Bold"
         id="path3177"
         inkscape:connector-curvature="0" />
    </g>
    <g
       style="font-size:40px;font-style:normal;font-variant:normal;font-weight:normal;font-stretch:normal;line-height:125%;letter-spacing:0px;word-spacing:0px;fill:#ffffff;fill-opacity:1;stroke:#000000;stroke-width:2;stroke-miterlimit:4;stroke-opacity:1;stroke-dasharray:none;font-family:Ubuntu;-inkscape-font-specification:Ubuntu"
       id="text3061-17">
      <path
         d="m 159.77216,1029.8926 c -1.04001,1.3601 -2.14668,2.8401 -3.32,4.44 -1.17334,1.6001 -2.16001,3.2401 -2.96,4.92 l 6.28,0 0,-9.36 m 5.84,-7.28 0,16.64 2.96,0 0,4.88 -2.96,0 0,6.2 -5.84,0 0,-6.2 -11.96,0 0,-4.36 c 0.58667,-1.1733 1.32,-2.4933 2.2,-3.96 0.88,-1.4933 1.85333,-3.0133 2.92,-4.56 1.09333,-1.5733 2.23999,-3.1066 3.44,-4.6 1.19999,-1.4933 2.39999,-2.8399 3.6,-4.04 l 5.64,0"
         style="font-weight:bold;fill:#ffffff;fill-opacity:1;stroke:#000000;stroke-width:2;stroke-miterlimit:4;stroke-opacity:1;stroke-dasharray:none;-inkscape-font-specification:Ubuntu Bold"
         id="path3174"
         inkscape:connector-curvature="0" />
    </g>
    <g
       style="font-size:40px;font-style:normal;font-variant:normal;font-weight:normal;font-stretch:normal;line-height:125%;letter-spacing:0px;word-spacing:0px;fill:#ffffff;fill-opacity:1;stroke:#000000;stroke-width:2;stroke-miterlimit:4;stroke-opacity:1;stroke-dasharray:none;font-family:Ubuntu;-inkscape-font-specification:Ubuntu"
       id="text3061-08">
      <path
         d="m 196.66195,1041.5727 c -2e-5,-0.7734 -0.17335,-1.4534 -0.52,-2.04 -0.34668,-0.6134 -0.94668,-1.12 -1.8,-1.52 -0.85335,-0.4 -2.00001,-0.7067 -3.44,-0.92 -1.44001,-0.2134 -3.25334,-0.32 -5.44,-0.32 0.29333,-2.48 0.53333,-5 0.72,-7.56 0.18666,-2.56 0.33333,-4.96 0.44,-7.2 l 15,0 0,5 -10,0 c -0.0533,0.96 -0.12001,1.8933 -0.2,2.8 -0.0533,0.88 -0.12001,1.6533 -0.2,2.32 3.89332,0.2667 6.75998,1.1866 8.6,2.76 1.86664,1.5466 2.79998,3.7066 2.8,6.48 -2e-5,1.28 -0.22669,2.4666 -0.68,3.56 -0.45335,1.0933 -1.13335,2.04 -2.04,2.84 -0.90669,0.8 -2.05335,1.4266 -3.44,1.88 -1.36002,0.4533 -2.96001,0.68 -4.8,0.68 -0.72001,0 -1.48001,-0.053 -2.28,-0.16 -0.77334,-0.08 -1.53334,-0.2 -2.28,-0.36 -0.72001,-0.1334 -1.37334,-0.28 -1.96,-0.44 -0.58667,-0.16 -1.04,-0.32 -1.36,-0.48 l 1.08,-4.92 c 0.66666,0.2933 1.54666,0.5866 2.64,0.88 1.09332,0.2666 2.39999,0.4 3.92,0.4 1.83999,0 3.17332,-0.36 4,-1.08 0.82665,-0.7467 1.23998,-1.6134 1.24,-2.6"
         style="font-weight:bold;fill:#ffffff;fill-opacity:1;stroke:#000000;stroke-width:2;stroke-miterlimit:4;stroke-opacity:1;stroke-dasharray:none;-inkscape-font-specification:Ubuntu Bold"
         id="path3171"
         inkscape:connector-curvature="0" />
    </g>
    <g
       style="font-size:40px;font-style:normal;font-variant:normal;font-weight:normal;font-stretch:normal;line-height:125%;letter-spacing:0px;word-spacing:0px;fill:#ffffff;fill-opacity:1;stroke:#000000;stroke-width:2;stroke-miterlimit:4;stroke-opacity:1;stroke-dasharray:none;font-family:Ubuntu;-inkscape-font-specification:Ubuntu"
       id="text3061-33">
      <path
         d="m 227.77175,1036.7327 c -0.58667,0 -1.21334,0.053 -1.88,0.16 -0.66667,0.1067 -1.18667,0.2534 -1.56,0.44 -1e-5,0.1067 -0.0133,0.2667 -0.04,0.48 -1e-5,0.2134 -1e-5,0.4 0,0.56 -1e-5,0.96 0.0667,1.8667 0.2,2.72 0.13333,0.8533 0.35999,1.6 0.68,2.24 0.31999,0.64 0.74666,1.1467 1.28,1.52 0.53333,0.3467 1.19999,0.52 2,0.52 0.66666,0 1.22666,-0.1333 1.68,-0.4 0.47999,-0.2933 0.86665,-0.6533 1.16,-1.08 0.31999,-0.4267 0.54665,-0.8933 0.68,-1.4 0.15999,-0.5333 0.23999,-1.04 0.24,-1.52 -1e-5,-1.36 -0.34668,-2.4 -1.04,-3.12 -0.66668,-0.7466 -1.80001,-1.12 -3.4,-1.12 m 0.76,-4.64 c 1.73332,0 3.19999,0.24 4.4,0.72 1.22665,0.4534 2.22665,1.08 3,1.88 0.77332,0.8 1.33332,1.7334 1.68,2.8 0.34665,1.0667 0.51998,2.2 0.52,3.4 -2e-5,1.0667 -0.20002,2.16 -0.6,3.28 -0.37335,1.12 -0.96002,2.1333 -1.76,3.04 -0.77335,0.9067 -1.77335,1.6533 -3,2.24 -1.20001,0.5867 -2.62668,0.88 -4.28,0.88 -3.33334,0 -5.86667,-1.0533 -7.6,-3.16 -1.73333,-2.1067 -2.6,-5.0133 -2.6,-8.72 0,-2.6666 0.41333,-5.0266 1.24,-7.08 0.82667,-2.0533 2,-3.7733 3.52,-5.16 1.54666,-1.4133 3.39999,-2.48 5.56,-3.2 2.18665,-0.7466 4.63999,-1.1333 7.36,-1.16 0.0533,0.8267 0.10665,1.64 0.16,2.44 0.0533,0.7734 0.10665,1.5867 0.16,2.44 -1.36002,0.027 -2.64001,0.16 -3.84,0.4 -1.17335,0.2134 -2.25334,0.56 -3.24,1.04 -0.96001,0.48 -1.80001,1.1067 -2.52,1.88 -0.72001,0.7467 -1.28001,1.6667 -1.68,2.76 0.58666,-0.2666 1.18666,-0.4533 1.8,-0.56 0.61333,-0.1066 1.18666,-0.16 1.72,-0.16"
         style="font-weight:bold;fill:#ffffff;fill-opacity:1;stroke:#000000;stroke-width:2;stroke-miterlimit:4;stroke-opacity:1;stroke-dasharray:none;-inkscape-font-specification:Ubuntu Bold"
         id="path3168"
         inkscape:connector-curvature="0" />
    </g>
    <g
       style="font-size:40px;font-style:normal;font-variant:normal;font-weight:normal;font-stretch:normal;line-height:125%;letter-spacing:0px;word-spacing:0px;fill:#ffffff;fill-opacity:1;stroke:#000000;stroke-width:2;stroke-miterlimit:4;stroke-opacity:1;stroke-dasharray:none;font-family:Ubuntu;-inkscape-font-specification:Ubuntu"
       id="text3061-8">
      <path
         d="m 257.48153,1050.3326 c 0.15999,-1.9466 0.49333,-3.9733 1,-6.08 0.50666,-2.1066 1.11999,-4.1733 1.84,-6.2 0.74666,-2.0266 1.57332,-3.9333 2.48,-5.72 0.90665,-1.8133 1.82665,-3.3733 2.76,-4.68 l -12.04,0 0,-5.08 19.4,0 0,4.32 c -0.85335,0.9334 -1.80002,2.2267 -2.84,3.88 -1.01335,1.6534 -1.98668,3.5334 -2.92,5.64 -0.90668,2.0801 -1.70668,4.3201 -2.4,6.72 -0.66668,2.4 -1.08001,4.8 -1.24,7.2 l -6.04,0"
         style="font-weight:bold;fill:#ffffff;fill-opacity:1;stroke:#000000;stroke-width:2;stroke-miterlimit:4;stroke-opacity:1;stroke-dasharray:none;-inkscape-font-specification:Ubuntu Bold"
         id="path3165"
         inkscape:connector-curvature="0" />
    </g>
    <g
       style="font-size:40px;font-style:normal;font-variant:normal;font-weight:normal;font-stretch:normal;line-height:125%;letter-spacing:0px;word-spacing:0px;fill:#ffffff;fill-opacity:1;stroke:#000000;stroke-width:2;stroke-miterlimit:4;stroke-opacity:1;stroke-dasharray:none;font-family:Ubuntu;-inkscape-font-specification:Ubuntu"
       id="text3061-37">
      <path
         d="m 308.05135,1042.0527 c -2e-5,1.2 -0.21336,2.3067 -0.64,3.32 -0.40002,0.9867 -1.01335,1.8533 -1.84,2.6 -0.82669,0.7467 -1.86668,1.3333 -3.12,1.76 -1.22668,0.4 -2.65335,0.6 -4.28,0.6 -1.86668,0 -3.42668,-0.2533 -4.68,-0.76 -1.22667,-0.5333 -2.22667,-1.1867 -3,-1.96 -0.74667,-0.7733 -1.28,-1.6133 -1.6,-2.52 -0.32,-0.9333 -0.48,-1.7867 -0.48,-2.56 0,-0.8 0.10666,-1.5333 0.32,-2.2 0.21333,-0.6667 0.50666,-1.2667 0.88,-1.8 0.37333,-0.56 0.78666,-1.0666 1.24,-1.52 0.47999,-0.4533 0.98666,-0.88 1.52,-1.28 -1.14667,-0.9333 -2,-1.8533 -2.56,-2.76 -0.53334,-0.9066 -0.8,-2.0666 -0.8,-3.48 0,-1.0666 0.21333,-2.0933 0.64,-3.08 0.45333,-0.9866 1.07999,-1.84 1.88,-2.56 0.79999,-0.7466 1.75999,-1.3333 2.88,-1.76 1.14666,-0.4533 2.41332,-0.68 3.8,-0.68 1.62665,0 3.01332,0.24 4.16,0.72 1.17332,0.4534 2.13331,1.04 2.88,1.76 0.74665,0.72 1.27998,1.5334 1.6,2.44 0.34665,0.88 0.51998,1.76 0.52,2.64 -2e-5,1.28 -0.34669,2.48 -1.04,3.6 -0.66669,1.0934 -1.50669,1.96 -2.52,2.6 1.51998,0.9867 2.59998,2.0267 3.24,3.12 0.66664,1.0667 0.99998,2.32 1,3.76 m -13.84,0.24 c -10e-6,0.32 0.0667,0.68 0.2,1.08 0.15999,0.3733 0.39999,0.72 0.72,1.04 0.31999,0.32 0.73332,0.5867 1.24,0.8 0.50666,0.2133 1.11999,0.32 1.84,0.32 1.38665,0 2.39999,-0.3333 3.04,-1 0.63998,-0.6667 0.95998,-1.4133 0.96,-2.24 -2e-5,-0.6133 -0.14668,-1.16 -0.44,-1.64 -0.26668,-0.48 -0.64002,-0.8933 -1.12,-1.24 -0.48001,-0.3733 -1.05335,-0.6933 -1.72,-0.96 -0.64001,-0.2933 -1.33335,-0.56 -2.08,-0.8 -0.74668,0.56 -1.37334,1.2133 -1.88,1.96 -0.50668,0.7467 -0.76001,1.64 -0.76,2.68 m 7.4,-13.16 c -2e-5,-0.2933 -0.0667,-0.6 -0.2,-0.92 -0.10668,-0.3466 -0.30668,-0.6666 -0.6,-0.96 -0.26668,-0.2933 -0.61335,-0.5333 -1.04,-0.72 -0.42668,-0.2133 -0.94668,-0.32 -1.56,-0.32 -0.58668,0 -1.09334,0.093 -1.52,0.28 -0.42668,0.1867 -0.78668,0.44 -1.08,0.76 -0.26668,0.2934 -0.46668,0.6134 -0.6,0.96 -0.13334,0.3467 -0.20001,0.68 -0.2,1 -1e-5,0.8534 0.30666,1.6534 0.92,2.4 0.63999,0.7467 1.71999,1.3867 3.24,1.92 0.85332,-0.5333 1.50665,-1.1466 1.96,-1.84 0.45332,-0.6933 0.67998,-1.5466 0.68,-2.56"
         style="font-weight:bold;fill:#ffffff;fill-opacity:1;stroke:#000000;stroke-width:2;stroke-miterlimit:4;stroke-opacity:1;stroke-dasharray:none;-inkscape-font-specification:Ubuntu Bold"
         id="path3162"
         inkscape:connector-curvature="0" />
    </g>
    <g
       style="font-size:40px;font-style:normal;font-variant:normal;font-weight:normal;font-stretch:normal;line-height:125%;letter-spacing:0px;word-spacing:0px;fill:#ffffff;fill-opacity:1;stroke:#000000;stroke-width:2;stroke-miterlimit:4;stroke-opacity:1;stroke-dasharray:none;font-family:Ubuntu;-inkscape-font-specification:Ubuntu"
       id="text3061-6">
      <path
         d="m 333.74115,1035.3727 c 0.61332,0 1.25332,-0.053 1.92,-0.16 0.66665,-0.1333 1.15999,-0.3067 1.48,-0.52 l 0,-0.36 c -10e-6,-0.1067 -10e-6,-0.2133 0,-0.32 0.0267,-0.1067 0.04,-0.2 0.04,-0.28 -0.0267,-0.96 -0.10668,-1.8533 -0.24,-2.68 -0.13335,-0.8533 -0.36001,-1.5867 -0.68,-2.2 -0.32001,-0.64 -0.76001,-1.1333 -1.32,-1.48 -0.53334,-0.3733 -1.20001,-0.56 -2,-0.56 -0.64001,0 -1.20001,0.1333 -1.68,0.4 -0.48001,0.2667 -0.86667,0.6133 -1.16,1.04 -0.29334,0.4267 -0.52001,0.8933 -0.68,1.4 -0.13334,0.5067 -0.2,1 -0.2,1.48 0,1.44 0.34666,2.5067 1.04,3.2 0.71999,0.6933 1.87999,1.04 3.48,1.04 m 2.92,3.88 c -0.56001,0.2667 -1.18668,0.4667 -1.88,0.6 -0.66668,0.1067 -1.24001,0.16 -1.72,0.16 -1.73334,0 -3.21334,-0.2 -4.44,-0.6 -1.22667,-0.4267 -2.24,-1.0133 -3.04,-1.76 -0.77333,-0.7733 -1.34667,-1.6933 -1.72,-2.76 -0.37333,-1.0667 -0.56,-2.24 -0.56,-3.52 0,-1.0667 0.17333,-2.16 0.52,-3.28 0.37333,-1.12 0.94667,-2.1333 1.72,-3.04 0.77333,-0.9333 1.74666,-1.6933 2.92,-2.28 1.19999,-0.6133 2.63999,-0.92 4.32,-0.92 3.43999,0 6.02665,1.0667 7.76,3.2 1.75998,2.1067 2.63998,5.1467 2.64,9.12 -2e-5,2.6133 -0.34668,4.92 -1.04,6.92 -0.66668,2 -1.72002,3.68 -3.16,5.04 -1.41335,1.36 -3.22668,2.4 -5.44,3.12 -2.21334,0.6933 -4.84,1.0533 -7.88,1.08 -0.0267,-0.8533 -0.0667,-1.68 -0.12,-2.48 -0.0533,-0.8 -0.10667,-1.6267 -0.16,-2.48 1.52,-0.027 2.89333,-0.1333 4.12,-0.32 1.22666,-0.2133 2.30666,-0.5467 3.24,-1 0.93332,-0.48 1.71999,-1.1067 2.36,-1.88 0.66666,-0.7733 1.18665,-1.7467 1.56,-2.92"
         style="font-weight:bold;fill:#ffffff;fill-opacity:1;stroke:#000000;stroke-width:2;stroke-miterlimit:4;stroke-opacity:1;stroke-dasharray:none;-inkscape-font-specification:Ubuntu Bold"
         id="path3159"
         inkscape:connector-curvature="0" />
    </g>
    <g
       style="font-size:40px;font-style:normal;font-weight:normal;line-height:125%;letter-spacing:0px;word-spacing:0px;fill:#ffffff;fill-opacity:1;stroke:none;font-family:Sans"
       id="text4168">
      <path
         d="m 369.08203,1021.4615 0,10.2344 10.19531,0 0,4.6094 -10.19531,0 0,10.2344 -4.64844,0 0,-10.2344 -10.19531,0 0,-4.6094 10.19531,0 0,-10.2344 4.64844,0"
         style="font-weight:bold;stroke:#000000;stroke-width:2;stroke-miterlimit:4;-inkscape-font-specification:Sans Bold;fill:#ffffff"
         id="path4711" />
    </g>
    <g
       inkscape:transform-center-y="32.670979"
       style="font-size:40px;font-style:normal;font-weight:normal;line-height:125%;letter-spacing:0px;word-spacing:0px;fill:#ffffff;fill-opacity:1;stroke:none;font-family:Sans"
       id="text4168-1">
      <path
         d="m 396.16058,1031.1373 12.26563,0 0,5.6836 -12.26563,0 0,-5.6836"
         style="font-weight:bold;stroke:#000000;stroke-width:2;stroke-miterlimit:4;-inkscape-font-specification:Sans Bold;fill:#ffffff"
         id="path4708" />
    </g>
  </g>
</svg>
