<?xml version="1.0" encoding="UTF-8" standalone="no"?>
<!-- Created with Inkscape (http://www.inkscape.org/) -->

<svg
   xmlns:dc="http://purl.org/dc/elements/1.1/"
   xmlns:cc="http://creativecommons.org/ns#"
   xmlns:rdf="http://www.w3.org/1999/02/22-rdf-syntax-ns#"
   xmlns:svg="http://www.w3.org/2000/svg"
   xmlns="http://www.w3.org/2000/svg"
   xmlns:sodipodi="http://sodipodi.sourceforge.net/DTD/sodipodi-0.dtd"
   xmlns:inkscape="http://www.inkscape.org/namespaces/inkscape"
   width="140"
   height="35"
   id="svg3131"
   version="1.1"
   inkscape:version="0.48.3.1 r9886"
   sodipodi:docname="game_over.svg">
  <defs
     id="defs3133" />
  <sodipodi:namedview
     id="base"
     pagecolor="#ffffff"
     bordercolor="#666666"
     borderopacity="1.0"
     inkscape:pageopacity="0.0"
     inkscape:pageshadow="2"
     inkscape:zoom="4.2053846"
     inkscape:cx="97.815872"
     inkscape:cy="35.710628"
     inkscape:document-units="px"
     inkscape:current-layer="layer1"
     showgrid="false"
     inkscape:window-width="1215"
     inkscape:window-height="776"
     inkscape:window-x="65"
     inkscape:window-y="24"
     inkscape:window-maximized="1" />
  <metadata
     id="metadata3136">
    <rdf:RDF>
      <cc:Work
         rdf:about="">
        <dc:format>image/svg+xml</dc:format>
        <dc:type
           rdf:resource="http://purl.org/dc/dcmitype/StillImage" />
        <dc:title></dc:title>
      </cc:Work>
    </rdf:RDF>
  </metadata>
  <g
     inkscape:label="Layer 1"
     inkscape:groupmode="layer"
     id="layer1"
     transform="translate(0,-1017.3622)">
    <path
       inkscape:connector-curvature="0"
       id="path3046"
       style="font-size:22.09022330999999895px;font-style:normal;font-variant:normal;font-weight:bold;font-stretch:normal;line-height:125%;letter-spacing:0px;word-spacing:0px;fill:#ff0000;fill-opacity:1;stroke:#000000;font-family:Serif;-inkscape-font-specification:Serif Bold"
       d="m 0.47124812,1045.8985 0,-19.6094 6.11579908,0 0,1.1649 -0.9491892,0 c -0.2444953,0 -0.478197,0.018 -0.7011058,0.054 -0.2229221,0.036 -0.4170742,0.1114 -0.582457,0.2265 -0.1582042,0.1079 -0.2876389,0.266 -0.3883047,0.4746 -0.093486,0.2085 -0.1402267,0.489 -0.1402212,0.8413 l 0,14.0868 c -5.5e-6,0.3452 0.046735,0.622 0.1402212,0.8306 0.1006658,0.2157 0.2301005,0.3775 0.3883047,0.4853 0.1653828,0.1151 0.3595349,0.1906 0.582457,0.2266 0.2229088,0.036 0.4566105,0.054 0.7011058,0.054 l 0.9491892,0 0,1.1649 -6.11579908,0" />
    <path
       inkscape:connector-curvature="0"
       id="path3048"
       style="font-size:22.09022331px;font-style:normal;font-variant:normal;font-weight:bold;font-stretch:normal;line-height:125%;letter-spacing:0px;word-spacing:0px;fill:#ffffff;fill-opacity:1;stroke:#000000;font-family:Serif;-inkscape-font-specification:Serif Bold"
       d="m 16.747687,1043.2882 c -1.366265,0 -2.559941,-0.1941 -3.581032,-0.5824 -1.013912,-0.3883 -1.858833,-0.9384 -2.534767,-1.6503 -0.6759402,-0.7119 -1.1792977,-1.5676 -1.5100737,-2.5671 -0.3307795,-0.9996 -0.4961684,-2.1069 -0.4961672,-3.3222 -1.2e-6,-1.1937 0.1761739,-2.2867 0.5285259,-3.279 0.3523485,-0.9923 0.873683,-1.8445 1.564005,-2.5564 0.690316,-0.7118 1.549619,-1.2655 2.577912,-1.661 1.028281,-0.3955 2.218362,-0.5933 3.570246,-0.5933 0.920416,0 1.722192,0.068 2.405332,0.205 0.690307,0.1294 1.265572,0.3092 1.725799,0.5393 0.467389,0.2301 0.816144,0.5033 1.046265,0.8197 0.230092,0.3092 0.345145,0.6436 0.34516,1.0031 -1.5e-5,0.2589 -0.06114,0.5034 -0.183366,0.7335 -0.122259,0.2229 -0.305625,0.4207 -0.550099,0.5932 -0.244502,0.1726 -0.542921,0.3093 -0.895258,0.4099 -0.352363,0.093 -0.76224,0.1403 -1.229631,0.1402 -1.2e-5,-0.4458 -0.05394,-0.8557 -0.161794,-1.2296 -0.107874,-0.3739 -0.276859,-0.6939 -0.506953,-0.96 -0.222927,-0.266 -0.506965,-0.4709 -0.852113,-0.6148 -0.34517,-0.151 -0.751452,-0.2265 -1.218846,-0.2265 -0.805381,0 -1.492104,0.1474 -2.060172,0.4422 -0.560891,0.2949 -1.021104,0.7263 -1.380639,1.2944 -0.352356,0.5681 -0.611226,1.2692 -0.776609,2.1033 -0.158204,0.827 -0.237303,1.7726 -0.237298,2.8368 -5e-6,1.0642 0.08269,2.0098 0.248084,2.8368 0.172574,0.8197 0.445826,1.5101 0.819754,2.0709 0.381108,0.5609 0.870084,0.9888 1.466929,1.2836 0.604022,0.2876 1.341081,0.4314 2.21118,0.4314 0.273241,0 0.546492,-0.011 0.819754,-0.032 0.273241,-0.022 0.539301,-0.061 0.798182,-0.1187 l 0,-3.2466 c -1.1e-5,-0.5897 -0.133041,-0.9995 -0.399091,-1.2297 -0.266071,-0.2301 -0.657971,-0.3451 -1.1757,-0.3451 l -0.291229,0 0,-1.1649 6.94634,0 0,1.1649 -0.291229,0 c -0.222931,0 -0.417083,0.029 -0.582457,0.086 -0.165404,0.05 -0.30203,0.1402 -0.409877,0.2696 -0.107877,0.1295 -0.186976,0.3021 -0.237297,0.5178 -0.05035,0.2085 -0.07552,0.471 -0.0755,0.7874 l 0,3.6241 c -0.862913,0.3955 -1.733002,0.694 -2.61027,0.8953 -0.877293,0.1942 -1.81929,0.2912 -2.825996,0.2912" />
    <path
       inkscape:connector-curvature="0"
       id="path3050"
       style="font-size:22.09022331px;font-style:normal;font-variant:normal;font-weight:bold;font-stretch:normal;line-height:125%;letter-spacing:0px;word-spacing:0px;fill:#ffffff;fill-opacity:1;stroke:#000000;font-family:Serif;-inkscape-font-specification:Serif Bold"
       d="m 28.828279,1039.7827 c -5e-6,0.6328 0.100667,1.1074 0.302015,1.4238 0.201338,0.3164 0.517734,0.4746 0.949189,0.4746 0.31639,0 0.600428,-0.065 0.852113,-0.1942 0.258863,-0.1366 0.478183,-0.3271 0.657961,-0.5716 0.186954,-0.2445 0.327175,-0.5393 0.420663,-0.8845 0.100664,-0.3524 0.151,-0.7443 0.151008,-1.1757 l 0,-1.6611 -0.992335,0.065 c -0.438647,0.022 -0.808974,0.093 -1.110983,0.2158 -0.30202,0.115 -0.542912,0.2768 -0.722678,0.4853 -0.179775,0.2086 -0.30921,0.4638 -0.388305,0.7659 -0.0791,0.302 -0.118653,0.6543 -0.118648,1.057 m 1.963096,-7.4856 c -0.280449,0 -0.517746,0.061 -0.711892,0.1833 -0.186967,0.1151 -0.337974,0.2805 -0.453022,0.4962 -0.115059,0.2085 -0.197753,0.4602 -0.248084,0.755 -0.04315,0.2877 -0.06472,0.6041 -0.06472,0.9492 -0.992338,0 -1.740184,-0.1114 -2.243539,-0.3344 -0.496169,-0.2229 -0.744252,-0.604 -0.74425,-1.1433 -2e-6,-0.4027 0.118646,-0.7478 0.355946,-1.0355 0.244485,-0.2876 0.571668,-0.5213 0.981548,-0.7011 0.417064,-0.1797 0.898849,-0.3092 1.445356,-0.3883 0.553689,-0.086 1.143336,-0.1294 1.768944,-0.1294 0.776602,0 1.452539,0.068 2.027813,0.2049 0.582448,0.1295 1.064233,0.3416 1.445357,0.6364 0.388294,0.2948 0.679522,0.6831 0.873685,1.1649 0.194142,0.4746 0.291218,1.0571 0.291229,1.7474 l 0,5.6304 c -1.1e-5,0.302 0.02156,0.5537 0.06472,0.755 0.05033,0.2014 0.125828,0.3632 0.226511,0.4854 0.10066,0.1151 0.237286,0.1978 0.409877,0.2481 0.172568,0.05 0.381102,0.075 0.625603,0.075 l 0.08629,0 0,1.1757 -4.109558,0 -0.463808,-1.5209 -0.194152,0 c -0.244496,0.2949 -0.474602,0.5537 -0.69032,0.7767 -0.215732,0.2157 -0.445838,0.3955 -0.690319,0.5393 -0.244495,0.1438 -0.521341,0.2481 -0.830541,0.3128 -0.30202,0.072 -0.661561,0.1078 -1.078624,0.1078 -0.48898,0 -0.945598,-0.072 -1.369853,-0.2157 -0.417071,-0.1438 -0.783802,-0.3631 -1.100197,-0.658 -0.309207,-0.302 -0.553695,-0.6759 -0.733464,-1.1217 -0.179772,-0.453 -0.269657,-0.9852 -0.269656,-1.5964 -10e-7,-1.2008 0.409876,-2.0889 1.229631,-2.6642 0.826943,-0.5752 2.067359,-0.888 3.721254,-0.9384 l 1.812089,-0.065 0,-1.2189 c -8e-6,-0.3667 -0.01439,-0.7046 -0.04315,-1.0139 -0.02877,-0.3092 -0.08989,-0.5752 -0.183367,-0.7981 -0.09349,-0.2229 -0.233709,-0.3955 -0.420663,-0.5178 -0.179778,-0.1222 -0.42067,-0.1833 -0.722678,-0.1833" />
    <path
       inkscape:connector-curvature="0"
       id="path3052"
       style="font-size:22.09022331px;font-style:normal;font-variant:normal;font-weight:bold;font-stretch:normal;line-height:125%;letter-spacing:0px;word-spacing:0px;fill:#ffffff;fill-opacity:1;stroke:#000000;font-family:Serif;-inkscape-font-specification:Serif Bold"
       d="m 46.906021,1043.0725 0,-7.2699 c -9e-6,-0.4746 -0.03237,-0.8953 -0.09708,-1.262 -0.05754,-0.3739 -0.158207,-0.6867 -0.302014,-0.9384 -0.136635,-0.2517 -0.320001,-0.4422 -0.550099,-0.5717 -0.222924,-0.1366 -0.496175,-0.2049 -0.819754,-0.2049 -0.36674,0 -0.672349,0.094 -0.916831,0.2804 -0.244494,0.187 -0.442242,0.4387 -0.593243,0.7551 -0.143822,0.3092 -0.248089,0.6723 -0.312801,1.0894 -0.06472,0.4099 -0.09708,0.8413 -0.09708,1.2943 l 0,4.2174 c -6e-6,0.3092 0.03595,0.5573 0.107862,0.7443 0.07909,0.187 0.186956,0.3344 0.323587,0.4422 0.13662,0.1007 0.302009,0.169 0.496168,0.205 0.201336,0.029 0.424251,0.043 0.668747,0.043 l 0.06472,0 0,1.1757 -6.784546,0 0,-1.1757 0.04314,0 c 0.251678,0 0.481784,-0.014 0.690319,-0.043 0.208533,-0.036 0.388303,-0.1079 0.539312,-0.2158 0.158197,-0.1078 0.280441,-0.2624 0.366733,-0.4638 0.08629,-0.2013 0.129432,-0.4674 0.129435,-0.7982 l 0,-6.6011 c -3e-6,-0.3092 -0.03955,-0.5573 -0.118649,-0.7443 -0.07191,-0.1869 -0.179773,-0.3307 -0.323587,-0.4314 -0.136628,-0.1079 -0.302017,-0.1762 -0.496168,-0.205 -0.194153,-0.036 -0.413473,-0.054 -0.65796,-0.054 l -0.06472,0 0,-1.111 4.638084,0 0.291229,1.5748 0.107862,0 c 0.22291,-0.417 0.456612,-0.7478 0.701106,-0.9923 0.251672,-0.2445 0.517733,-0.4315 0.798182,-0.5609 0.280435,-0.1294 0.575258,-0.2121 0.884472,-0.2481 0.316388,-0.036 0.647166,-0.054 0.992334,-0.054 0.812554,0 1.506468,0.1474 2.081745,0.4422 0.575254,0.2877 0.995917,0.7587 1.26199,1.413 l 0.194152,0 c 0.222903,-0.417 0.463796,-0.7478 0.722678,-0.9923 0.266048,-0.2445 0.54649,-0.4315 0.841327,-0.5609 0.302001,-0.1294 0.614801,-0.2121 0.938403,-0.2481 0.330763,-0.036 0.668732,-0.054 1.013907,-0.054 0.568059,0 1.078607,0.083 1.531646,0.2481 0.453005,0.1654 0.834118,0.4206 1.143342,0.7658 0.316378,0.3452 0.55727,0.7874 0.722678,1.3267 0.16537,0.5321 0.248064,1.1721 0.248084,1.9199 l 0,5.1235 c -2e-5,0.3452 0.02874,0.622 0.08629,0.8305 0.0647,0.2014 0.158178,0.356 0.280442,0.4639 0.122224,0.1078 0.276827,0.1797 0.463808,0.2157 0.186941,0.036 0.402666,0.054 0.647175,0.054 l 0.06472,0 0,1.1757 -4.90774,0 0,-7.2699 c -1.6e-5,-0.9492 -0.133046,-1.6827 -0.399091,-2.2004 -0.258885,-0.5177 -0.711907,-0.7766 -1.359066,-0.7766 -0.345174,0 -0.639998,0.086 -0.884472,0.2588 -0.244501,0.1654 -0.445844,0.392 -0.604029,0.6796 -0.151021,0.2876 -0.262478,0.6256 -0.334374,1.0139 -0.07192,0.3811 -0.107875,0.7838 -0.107862,1.208 l 0,4.3469 c -1.3e-5,0.3452 0.02875,0.622 0.08629,0.8305 0.0647,0.2014 0.158185,0.356 0.280442,0.4639 0.122231,0.1078 0.276834,0.1797 0.463808,0.2157 0.186948,0.036 0.406268,0.054 0.657961,0.054 l 0.06472,0 0,1.1757 -4.907741,0" />
    <path
       inkscape:connector-curvature="0"
       id="path3054"
       style="font-size:22.09022331px;font-style:normal;font-variant:normal;font-weight:bold;font-stretch:normal;line-height:125%;letter-spacing:0px;word-spacing:0px;fill:#ffffff;fill-opacity:1;stroke:#000000;font-family:Serif;-inkscape-font-specification:Serif Bold"
       d="m 65.997669,1032.3833 c -0.618417,10e-5 -1.110988,0.3057 -1.477715,0.9169 -0.359546,0.6112 -0.557294,1.5065 -0.593243,2.6857 l 3.818329,0 c -8e-6,-0.5608 -0.03237,-1.0642 -0.09708,-1.51 -0.06473,-0.4458 -0.168992,-0.8234 -0.312801,-1.1326 -0.136633,-0.3092 -0.316404,-0.5465 -0.539312,-0.7119 -0.215732,-0.1654 -0.481792,-0.248 -0.798182,-0.2481 m 0.204939,10.9049 c -0.934814,0 -1.761758,-0.1366 -2.480836,-0.4098 -0.711896,-0.2733 -1.308734,-0.6688 -1.790516,-1.1865 -0.481788,-0.5178 -0.844924,-1.1506 -1.089411,-1.8984 -0.244489,-0.755 -0.366733,-1.6143 -0.366732,-2.5779 -1e-6,-1.0355 0.122243,-1.9451 0.366732,-2.7289 0.244487,-0.7838 0.600433,-1.4382 1.067838,-1.9631 0.467401,-0.525 1.039071,-0.9169 1.715013,-1.1757 0.683124,-0.2661 1.459732,-0.3991 2.329828,-0.3991 0.798175,0 1.517257,0.115 2.157248,0.3451 0.639975,0.223 1.182882,0.5573 1.628723,1.0032 0.445821,0.4458 0.787385,0.9995 1.024693,1.661 0.237286,0.6616 0.355934,1.431 0.355946,2.3083 l 0,1.1325 -7.237568,0 c 0.02157,0.7407 0.100667,1.3771 0.237297,1.9092 0.143812,0.5321 0.337964,0.9708 0.582457,1.3159 0.251673,0.3452 0.553688,0.6005 0.906044,0.7659 0.359535,0.1653 0.769412,0.248 1.229632,0.248 0.381106,0 0.733456,-0.043 1.057052,-0.1294 0.323578,-0.093 0.614806,-0.2193 0.873685,-0.3775 0.266051,-0.1654 0.496157,-0.356 0.69032,-0.5717 0.201333,-0.2229 0.366721,-0.4602 0.496167,-0.7119 0.395484,0.2158 0.593232,0.5753 0.593243,1.0786 -1.1e-5,0.3164 -0.0863,0.6185 -0.25887,0.9061 -0.17259,0.2804 -0.438651,0.5285 -0.798182,0.7442 -0.359551,0.2158 -0.812572,0.3883 -1.359066,0.5178 -0.53932,0.1294 -1.182899,0.1941 -1.930737,0.1941" />
    <path
       inkscape:connector-curvature="0"
       id="path3056"
       style="font-size:22.09022331px;font-style:normal;font-variant:normal;font-weight:bold;font-stretch:normal;line-height:125%;letter-spacing:0px;word-spacing:0px;fill:#ffffff;fill-opacity:1;stroke:#000000;font-family:Serif;-inkscape-font-specification:Serif Bold"
       d="m 93.944819,1035.1662 c -1.6e-5,1.2153 -0.165405,2.3226 -0.496167,3.3222 -0.323602,0.9995 -0.805387,1.8552 -1.445356,2.5671 -0.632807,0.7119 -1.413011,1.262 -2.340615,1.6503 -0.920437,0.3883 -1.981083,0.5824 -3.181941,0.5824 -1.258402,0 -2.358598,-0.1941 -3.30059,-0.5824 -0.934812,-0.3883 -1.711421,-0.9384 -2.329828,-1.6503 -0.618414,-0.7119 -1.082222,-1.5676 -1.391425,-2.5671 -0.309207,-1.0068 -0.46381,-2.1213 -0.463809,-3.3438 -10e-7,-1.2224 0.154602,-2.3298 0.463809,-3.3221 0.309203,-0.9996 0.773011,-1.8517 1.391425,-2.5564 0.625598,-0.7047 1.405802,-1.2476 2.340614,-1.6287 0.941992,-0.3883 2.045783,-0.5824 3.311377,-0.5825 1.193667,10e-5 2.250718,0.1942 3.171155,0.5825 0.927604,0.3811 1.707808,0.9276 2.340614,1.6395 0.632778,0.7047 1.110968,1.5568 1.43457,2.5563 0.330762,0.9924 0.496151,2.1034 0.496167,3.333 m -11.239264,0 c -5e-6,1.0571 0.06831,1.9991 0.204939,2.826 0.13662,0.8269 0.35594,1.528 0.657961,2.1033 0.302008,0.5681 0.690313,1.0031 1.164914,1.3051 0.481778,0.3021 1.064234,0.4531 1.747371,0.4531 0.69031,0 1.272767,-0.151 1.747371,-0.4531 0.481775,-0.302 0.870079,-0.737 1.164914,-1.3051 0.294812,-0.5753 0.506942,-1.2764 0.636389,-2.1033 0.136613,-0.8269 0.204926,-1.7689 0.204938,-2.826 -1.2e-5,-1.057 -0.06833,-1.999 -0.204938,-2.826 -0.129447,-0.8269 -0.341577,-1.5244 -0.636389,-2.0925 -0.294835,-0.5753 -0.679544,-1.0103 -1.154128,-1.3052 -0.474604,-0.302 -1.053465,-0.453 -1.736584,-0.453 -0.690328,0 -1.27638,0.151 -1.758158,0.453 -0.481792,0.2949 -0.873692,0.7299 -1.1757,1.3052 -0.302021,0.5681 -0.521341,1.2656 -0.657961,2.0925 -0.136631,0.827 -0.204944,1.769 -0.204939,2.826" />
    <path
       inkscape:connector-curvature="0"
       id="path3058"
       style="font-size:22.09022331px;font-style:normal;font-variant:normal;font-weight:bold;font-stretch:normal;line-height:125%;letter-spacing:0px;word-spacing:0px;fill:#ffffff;fill-opacity:1;stroke:#000000;font-family:Serif;-inkscape-font-specification:Serif Bold"
       d="m 108.54939,1032.4049 -0.44224,0 c -0.15102,0 -0.28764,0.018 -0.40987,0.054 -0.11507,0.036 -0.23012,0.1115 -0.34516,0.2266 -0.10788,0.1078 -0.21574,0.2696 -0.32359,0.4853 -0.10787,0.2086 -0.22652,0.489 -0.35595,0.8414 l -3.20351,9.0604 -2.91229,0 -3.624173,-9.6105 c -0.0791,-0.2086 -0.172581,-0.3811 -0.280442,-0.5178 -0.100673,-0.1366 -0.222917,-0.2444 -0.366732,-0.3236 -0.136627,-0.079 -0.298421,-0.133 -0.485381,-0.1618 -0.179771,-0.036 -0.391901,-0.054 -0.636388,-0.054 l 0,-1.1757 6.849266,0 0,1.1757 -0.92762,0 c -0.22292,0 -0.40269,0.061 -0.53931,0.1834 -0.12944,0.115 -0.19416,0.2876 -0.19415,0.5177 -1e-5,0.1798 0.0216,0.356 0.0647,0.5285 0.0503,0.1726 0.0971,0.32 0.14022,0.4423 l 1.47772,4.185 c 0.17976,0.4675 0.33437,0.9385 0.46381,1.413 0.13662,0.4746 0.24088,0.8989 0.3128,1.2728 0.0359,-0.1726 0.0863,-0.3739 0.15101,-0.604 0.0647,-0.2301 0.12942,-0.453 0.19415,-0.6688 0.0647,-0.2229 0.12223,-0.4242 0.17258,-0.604 0.0575,-0.1798 0.0971,-0.3056 0.11865,-0.3775 l 1.49928,-4.4331 c 0.0719,-0.2014 0.12943,-0.4027 0.17258,-0.6041 0.0503,-0.2085 0.0755,-0.4134 0.0755,-0.6148 -1e-5,-0.2445 -0.0827,-0.4099 -0.24809,-0.4962 -0.1582,-0.093 -0.36314,-0.1402 -0.61481,-0.1402 l -0.63639,0 0,-1.1757 4.85381,0 0,1.1757" />
    <path
       inkscape:connector-curvature="0"
       id="path3060"
       style="font-size:22.09022331px;font-style:normal;font-variant:normal;font-weight:bold;font-stretch:normal;line-height:125%;letter-spacing:0px;word-spacing:0px;fill:#ffffff;fill-opacity:1;stroke:#000000;font-family:Serif;-inkscape-font-specification:Serif Bold"
       d="m 115.09664,1032.3833 c -0.61842,10e-5 -1.11099,0.3057 -1.47772,0.9169 -0.35954,0.6112 -0.55729,1.5065 -0.59324,2.6857 l 3.81833,0 c -1e-5,-0.5608 -0.0324,-1.0642 -0.0971,-1.51 -0.0647,-0.4458 -0.16899,-0.8234 -0.3128,-1.1326 -0.13663,-0.3092 -0.3164,-0.5465 -0.53931,-0.7119 -0.21573,-0.1654 -0.48179,-0.248 -0.79818,-0.2481 m 0.20494,10.9049 c -0.93482,0 -1.76176,-0.1366 -2.48084,-0.4098 -0.7119,-0.2733 -1.30873,-0.6688 -1.79052,-1.1865 -0.48178,-0.5178 -0.84492,-1.1506 -1.08941,-1.8984 -0.24449,-0.755 -0.36673,-1.6143 -0.36673,-2.5779 0,-1.0355 0.12224,-1.9451 0.36673,-2.7289 0.24449,-0.7838 0.60044,-1.4382 1.06784,-1.9631 0.4674,-0.525 1.03907,-0.9169 1.71501,-1.1757 0.68313,-0.2661 1.45974,-0.3991 2.32983,-0.3991 0.79818,0 1.51726,0.115 2.15725,0.3451 0.63998,0.223 1.18288,0.5573 1.62872,1.0032 0.44582,0.4458 0.78739,0.9995 1.0247,1.661 0.23728,0.6616 0.35593,1.431 0.35594,2.3083 l 0,1.1325 -7.23757,0 c 0.0216,0.7407 0.10067,1.3771 0.2373,1.9092 0.14381,0.5321 0.33797,0.9708 0.58246,1.3159 0.25167,0.3452 0.55369,0.6005 0.90604,0.7659 0.35954,0.1653 0.76941,0.248 1.22963,0.248 0.38111,0 0.73346,-0.043 1.05706,-0.1294 0.32357,-0.093 0.6148,-0.2193 0.87368,-0.3775 0.26605,-0.1654 0.49616,-0.356 0.69032,-0.5717 0.20133,-0.2229 0.36672,-0.4602 0.49617,-0.7119 0.39548,0.2158 0.59323,0.5753 0.59324,1.0786 -1e-5,0.3164 -0.0863,0.6185 -0.25887,0.9061 -0.17259,0.2804 -0.43865,0.5285 -0.79818,0.7442 -0.35955,0.2158 -0.81257,0.3883 -1.35907,0.5178 -0.53932,0.1294 -1.1829,0.1941 -1.93073,0.1941" />
    <path
       inkscape:connector-curvature="0"
       id="path3062"
       style="font-size:22.09022331px;font-style:normal;font-variant:normal;font-weight:bold;font-stretch:normal;line-height:125%;letter-spacing:0px;word-spacing:0px;fill:#ffffff;fill-opacity:1;stroke:#000000;font-family:Serif;-inkscape-font-specification:Serif Bold"
       d="m 128.95696,1043.0725 -7.37779,0 0,-1.1757 0.0647,0 c 0.25168,0 0.48179,-0.018 0.69032,-0.054 0.20853,-0.036 0.3883,-0.1079 0.53931,-0.2157 0.15101,-0.1151 0.26606,-0.2769 0.34516,-0.4854 0.0863,-0.2086 0.12944,-0.4854 0.12944,-0.8306 l 0,-6.407 c 0,-0.3236 -0.0395,-0.5824 -0.11865,-0.7766 -0.0719,-0.2013 -0.17977,-0.3559 -0.32359,-0.4638 -0.13663,-0.1079 -0.30201,-0.1762 -0.49617,-0.205 -0.19415,-0.036 -0.41347,-0.054 -0.65796,-0.054 l -0.0647,0 0,-1.1757 4.4655,0 0.44224,1.7258 0.10786,0 c 0.14381,-0.3308 0.30201,-0.6184 0.47459,-0.8629 0.17258,-0.2517 0.37752,-0.4602 0.61482,-0.6256 0.24448,-0.1654 0.52852,-0.2876 0.85211,-0.3667 0.33077,-0.086 0.72267,-0.1294 1.1757,-0.1295 0.87008,10e-5 1.51007,0.1547 1.91995,0.4639 0.40987,0.302 0.61481,0.7442 0.61482,1.3267 -1e-5,0.6759 -0.2445,1.2008 -0.73347,1.5748 -0.48898,0.3739 -1.1793,0.5608 -2.07095,0.5608 -1e-5,-0.302 -0.018,-0.568 -0.0539,-0.7981 -0.0288,-0.2301 -0.0863,-0.4207 -0.17258,-0.5717 -0.0791,-0.151 -0.19057,-0.2661 -0.33438,-0.3452 -0.13663,-0.079 -0.30921,-0.1186 -0.51774,-0.1186 -0.25887,0 -0.48179,0.065 -0.66874,0.1941 -0.18697,0.1295 -0.34517,0.2985 -0.4746,0.507 -0.12944,0.2013 -0.2373,0.4314 -0.32359,0.6903 -0.0791,0.2589 -0.14382,0.5213 -0.19415,0.7874 -0.0432,0.2589 -0.0719,0.507 -0.0863,0.7442 -0.0144,0.2374 -0.0216,0.4423 -0.0216,0.6149 l 0,3.8183 c -10e-6,0.3236 0.0395,0.586 0.11865,0.7874 0.0791,0.1941 0.18695,0.3416 0.32358,0.4422 0.13662,0.1007 0.29842,0.169 0.48539,0.205 0.19414,0.029 0.39908,0.043 0.61481,0.043 l 0.71189,0 0,1.1757" />
    <path
       inkscape:connector-curvature="0"
       id="path3064"
       style="font-size:22.09022330999999895px;font-style:normal;font-variant:normal;font-weight:bold;font-stretch:normal;line-height:125%;letter-spacing:0px;word-spacing:0px;fill:#ff0000;fill-opacity:1;stroke:#000000;font-family:Serif;-inkscape-font-specification:Serif Bold"
       d="m 139.63533,1026.2891 0,19.6094 -6.11579,0 0,-1.1649 0.94918,0 c 0.25168,0 0.48538,-0.018 0.70111,-0.054 0.22291,-0.036 0.41347,-0.1115 0.57167,-0.2266 0.16539,-0.1078 0.29482,-0.2696 0.38831,-0.4853 0.10066,-0.2086 0.151,-0.4854 0.151,-0.8306 l 0,-14.0868 c 0,-0.3523 -0.0503,-0.6328 -0.151,-0.8413 -0.0935,-0.2086 -0.22292,-0.3667 -0.38831,-0.4746 -0.1582,-0.1151 -0.34876,-0.1906 -0.57167,-0.2265 -0.21573,-0.036 -0.44943,-0.054 -0.70111,-0.054 l -0.94918,0 0,-1.1649 6.11579,0" />
  </g>
</svg>
