<?xml version="1.0" encoding="UTF-8" standalone="no"?>
<!-- Created with Inkscape (http://www.inkscape.org/) -->

<svg
   xmlns:dc="http://purl.org/dc/elements/1.1/"
   xmlns:cc="http://creativecommons.org/ns#"
   xmlns:rdf="http://www.w3.org/1999/02/22-rdf-syntax-ns#"
   xmlns:svg="http://www.w3.org/2000/svg"
   xmlns="http://www.w3.org/2000/svg"
   xmlns:sodipodi="http://sodipodi.sourceforge.net/DTD/sodipodi-0.dtd"
   xmlns:inkscape="http://www.inkscape.org/namespaces/inkscape"
   width="140"
   height="35"
   id="svg3131"
   version="1.1"
   inkscape:version="0.48.3.1 r9886"
   sodipodi:docname="menu_quit.svg">
  <defs
     id="defs3133" />
  <sodipodi:namedview
     id="base"
     pagecolor="#ffffff"
     bordercolor="#666666"
     borderopacity="1.0"
     inkscape:pageopacity="0.0"
     inkscape:pageshadow="2"
     inkscape:zoom="4.2053846"
     inkscape:cx="64.475751"
     inkscape:cy="32.143772"
     inkscape:document-units="px"
     inkscape:current-layer="layer1"
     showgrid="false"
     inkscape:window-width="1215"
     inkscape:window-height="776"
     inkscape:window-x="65"
     inkscape:window-y="24"
     inkscape:window-maximized="1" />
  <metadata
     id="metadata3136">
    <rdf:RDF>
      <cc:Work
         rdf:about="">
        <dc:format>image/svg+xml</dc:format>
        <dc:type
           rdf:resource="http://purl.org/dc/dcmitype/StillImage" />
        <dc:title />
      </cc:Work>
    </rdf:RDF>
  </metadata>
  <g
     inkscape:label="Layer 1"
     inkscape:groupmode="layer"
     id="layer1"
     transform="translate(0,-1017.3622)">
    <path
       style="font-size:40px;font-style:normal;font-variant:normal;font-weight:normal;font-stretch:normal;line-height:125%;letter-spacing:0px;word-spacing:0px;fill:#ffffff;fill-opacity:1;stroke:#000000;stroke-width:0.86016279;font-family:Droid Serif;-inkscape-font-specification:Droid Serif"
       d="m 58.292549,1031.4565 c 0.163265,4.8653 -2.01726,10.5019 -7.029785,12.0772 -2.957129,0.314 -0.552445,5.1533 1.281007,6.0575 1.362407,0.6847 3.556095,-0.1874 2.892769,1.9971 -1.198741,0.2444 -2.886991,0.065 -4.200014,-0.2741 -3.228677,-0.7803 -5.165928,-4.1004 -5.224817,-7.2744 -4.290893,-0.2067 -7.901896,-3.5928 -8.786428,-7.728 -1.065571,-4.8299 -0.895933,-10.5139 2.463831,-14.4447 3.616121,-3.7432 10.118689,-4.0361 14.281609,-1.0534 3.263942,2.4545 4.340704,6.7449 4.321828,10.6428 z m -17.824857,0 c 0.02864,3.6642 0.374188,8.4153 4.108135,10.2494 3.101485,1.3432 7.40363,0.3561 8.714495,-3.0211 1.583383,-4.0178 1.42537,-8.5747 0.604802,-12.7491 -0.558421,-2.9871 -3.226362,-5.5057 -6.371409,-5.248 -3.15413,-0.2459 -5.892151,2.2302 -6.464875,5.248 -0.468892,1.7975 -0.582832,3.6698 -0.591148,5.5208 z"
       id="path3209"
       inkscape:connector-curvature="0" />
    <path
       style="font-size:40px;font-style:normal;font-variant:normal;font-weight:normal;font-stretch:normal;line-height:125%;letter-spacing:0px;word-spacing:0px;fill:#ffffff;fill-opacity:1;stroke:#000000;stroke-width:0.86016279;font-family:Droid Serif;-inkscape-font-specification:Droid Serif"
       d="m 78.38541,1040.0246 c -0.658309,2.9264 3.739789,1.1827 2.923211,3.667 -1.206696,0.1852 -2.757665,0.026 -4.096491,0.079 -1.231116,0.3185 -1.634318,-0.3365 -1.607102,-1.4975 -0.05703,-2.9632 -1.434955,1.0799 -2.864432,1.2456 -2.892175,1.2641 -7.306417,0.6748 -8.298179,-2.7959 -0.819596,-3.0655 -0.343023,-6.2828 -0.47145,-9.4219 -0.108671,-1.4894 0.487057,-3.5907 -1.260006,-4.3219 -1.386061,0.348 -2.129089,-0.708 -1.511481,-1.6551 2.004633,0 4.009266,0 6.013898,0 0.05078,4.474 -0.109026,8.9567 0.0945,13.4243 -0.01786,3.1542 4.127698,4.0883 6.213912,2.2712 2.317514,-2.2567 1.471131,-5.714 1.638011,-8.6195 -0.124833,-1.6277 0.349863,-3.4029 -0.495608,-4.8793 -1.0363,-0.7995 -3.277449,-0.5375 -2.275875,-2.197 1.999031,0 3.998058,0 5.997094,0 0,4.9 0,9.8001 0,14.7001"
       id="path3211"
       inkscape:connector-curvature="0" />
    <path
       style="font-size:40px;font-style:normal;font-variant:normal;font-weight:normal;font-stretch:normal;line-height:125%;letter-spacing:0px;word-spacing:0px;fill:#ffffff;fill-opacity:1;stroke:#000000;stroke-width:0.86016279;font-family:Droid Serif;-inkscape-font-specification:Droid Serif"
       d="m 83.341427,1042.3262 c 2.447206,0.4948 3.089911,-1.9534 2.822409,-3.8187 -0.03604,-3.3545 0.07406,-6.7173 -0.05875,-10.0664 -0.103813,-2.1327 -3.988919,-0.9857 -2.712696,-3.1167 1.999027,0 3.998063,0 5.997089,0 0.03475,5.0855 -0.07062,10.1777 0.05462,15.2587 -0.01488,2.6075 4.058078,0.5496 3.22143,3.1088 -1.206697,0.1852 -2.757665,0.026 -4.096491,0.079 -1.893717,0 -3.787426,0 -5.681143,0 0.159371,-0.4644 -0.401094,-1.6889 0.453598,-1.4447 m 2.335213,-22.5793 c -0.174819,-3.8193 5.85598,-1.7304 3.565805,1.3735 -1.068443,1.5494 -3.911194,0.6415 -3.565805,-1.3735 z"
       id="path3213"
       inkscape:connector-curvature="0" />
    <path
       style="font-size:40px;font-style:normal;font-variant:normal;font-weight:normal;font-stretch:normal;line-height:125%;letter-spacing:0px;word-spacing:0px;fill:#ffffff;fill-opacity:1;stroke:#000000;stroke-width:0.86016279;font-family:Droid Serif;-inkscape-font-specification:Droid Serif"
       d="m 102.24149,1042.2926 c 1.46468,-0.2492 2.62188,-0.4894 2.2008,1.2769 -2.48325,0.8325 -6.361657,1.08 -7.591517,-1.7973 -0.79628,-2.7882 -0.32969,-5.7367 -0.4557,-8.604 0,-1.9592 0,-3.9184 0,-5.8776 -0.814233,-0.1099 -2.062983,0.2146 -2.620807,-0.1518 -0.642129,-2.1806 2.776617,-0.9773 3.217207,-3.015 0.676,-1.3199 0.82893,-3.9355 2.62921,-2.8807 0,1.3606 0,2.7212 0,4.0818 1.500797,0 3.001607,0 4.502417,0 -0.11483,0.8439 0.46951,2.3869 -0.91034,1.9657 -1.19736,0 -2.39472,0 -3.592077,0 0.0576,4.2595 -0.12057,8.5325 0.0992,12.7827 0.15449,1.2505 1.217137,2.2951 2.521587,2.2197"
       id="path3215"
       inkscape:connector-curvature="0" />
  </g>
</svg>
