<?xml version="1.0" encoding="UTF-8" standalone="no"?>
<!-- Created with Inkscape (http://www.inkscape.org/) -->

<svg
   xmlns:dc="http://purl.org/dc/elements/1.1/"
   xmlns:cc="http://creativecommons.org/ns#"
   xmlns:rdf="http://www.w3.org/1999/02/22-rdf-syntax-ns#"
   xmlns:svg="http://www.w3.org/2000/svg"
   xmlns="http://www.w3.org/2000/svg"
   xmlns:sodipodi="http://sodipodi.sourceforge.net/DTD/sodipodi-0.dtd"
   xmlns:inkscape="http://www.inkscape.org/namespaces/inkscape"
   width="200"
   height="50"
   id="svg3131"
   version="1.1"
   inkscape:version="0.48.3.1 r9886"
   sodipodi:docname="menu_new_game.svg">
  <defs
     id="defs3133" />
  <sodipodi:namedview
     id="base"
     pagecolor="#ffffff"
     bordercolor="#666666"
     borderopacity="1.0"
     inkscape:pageopacity="0.0"
     inkscape:pageshadow="2"
     inkscape:zoom="4.2053846"
     inkscape:cx="131.42857"
     inkscape:cy="32.857143"
     inkscape:document-units="px"
     inkscape:current-layer="layer1"
     showgrid="false"
     inkscape:window-width="1680"
     inkscape:window-height="999"
     inkscape:window-x="-7"
     inkscape:window-y="23"
     inkscape:window-maximized="1" />
  <metadata
     id="metadata3136">
    <rdf:RDF>
      <cc:Work
         rdf:about="">
        <dc:format>image/svg+xml</dc:format>
        <dc:type
           rdf:resource="http://purl.org/dc/dcmitype/StillImage" />
        <dc:title />
      </cc:Work>
    </rdf:RDF>
  </metadata>
  <g
     inkscape:label="Layer 1"
     inkscape:groupmode="layer"
     id="layer1"
     transform="translate(0,-1002.3622)">
    <path
       inkscape:connector-curvature="0"
       id="path3268"
       style="font-size:40px;font-style:normal;font-variant:normal;font-weight:normal;font-stretch:normal;line-height:125%;letter-spacing:0px;word-spacing:0px;fill:#000000;fill-opacity:1;stroke:none;font-family:Droid Serif;-inkscape-font-specification:Droid Serif"
       d="m 23.467276,1037.6191 -14.9999996,-23.0468 0,18.4961 c -7.8e-6,0.625 0.084628,1.1263 0.2539062,1.5039 0.1822835,0.3776 0.4166583,0.6705 0.703125,0.8789 0.2994702,0.1953 0.6510324,0.3255 1.0546874,0.3906 0.403636,0.065 0.826812,0.098 1.269531,0.098 l 0.527344,0 0,1.6796 -10.0390624,0 0,-1.6796 0.5078125,0 c 0.4557267,0 0.8789034,-0.033 1.2695313,-0.098 0.4036421,-0.065 0.7552043,-0.1953 1.0546875,-0.3906 0.2994745,-0.2084 0.5338493,-0.5013 0.703125,-0.8789 0.1692656,-0.3776 0.2539009,-0.8789 0.2539062,-1.5039 l 0,-19.6094 c -5.3e-6,-0.5859 -0.091151,-1.0547 -0.2734375,-1.4063 -0.1692757,-0.3645 -0.4036504,-0.6445 -0.703125,-0.8398 -0.2994832,-0.1953 -0.6510453,-0.319 -1.0546875,-0.3711 -0.3906278,-0.065 -0.8072941,-0.098 -1.25,-0.098 l -0.5078125,0 0,-1.6796 7.3242188,0 14.3164066,22.1093 0,-17.7148 c -2.4e-5,-0.5859 -0.09117,-1.0547 -0.273438,-1.4063 -0.169293,-0.3645 -0.403668,-0.6445 -0.703125,-0.8398 -0.299501,-0.1953 -0.651063,-0.319 -1.054687,-0.3711 -0.390646,-0.065 -0.807312,-0.098 -1.25,-0.098 l -0.527344,0 0,-1.6796 10.039062,0 0,1.6796 -0.507812,0 c -0.455758,10e-5 -0.885445,0.033 -1.289063,0.098 -0.390652,0.065 -0.735704,0.2018 -1.035156,0.4102 -0.299505,0.1953 -0.53388,0.4817 -0.703125,0.8593 -0.169296,0.3777 -0.253932,0.879 -0.253906,1.5039 l 0,24.0039 -2.851563,0" />
    <path
       inkscape:connector-curvature="0"
       id="path3270"
       style="font-size:40px;font-style:normal;font-variant:normal;font-weight:normal;font-stretch:normal;line-height:125%;letter-spacing:0px;word-spacing:0px;fill:#000000;fill-opacity:1;stroke:none;font-family:Droid Serif;-inkscape-font-specification:Droid Serif"
       d="m 42.256339,1017.9316 c -1.484385,10e-5 -2.630217,0.6055 -3.4375,1.8164 -0.794278,1.198 -1.263027,2.9558 -1.40625,5.2735 l 9.199219,0 c -1.6e-5,-1.0547 -0.07814,-2.0182 -0.234375,-2.8906 -0.156265,-0.8724 -0.403661,-1.6211 -0.742188,-2.2461 -0.338556,-0.625 -0.787774,-1.1068 -1.347656,-1.4453 -0.546888,-0.3386 -1.22397,-0.5078 -2.03125,-0.5079 m 0.488281,20.0782 c -1.445322,0 -2.747404,-0.2409 -3.90625,-0.7227 -1.14584,-0.4948 -2.115891,-1.2109 -2.910156,-2.1484 -0.794275,-0.9375 -1.406253,-2.0834 -1.835938,-3.4375 -0.416669,-1.3672 -0.625002,-2.9167 -0.625,-4.6485 -2e-6,-3.7369 0.768227,-6.5494 2.304688,-8.4375 1.536452,-1.888 3.72395,-2.832 6.5625,-2.832 1.28905,0 2.447903,0.2018 3.476562,0.6055 1.028631,0.4036 1.901026,1.0091 2.617188,1.8164 0.716128,0.7943 1.263002,1.7904 1.640625,2.9883 0.390606,1.1849 0.585918,2.5651 0.585937,4.1406 l 0,1.8359 -13.320312,0 c 0.02604,1.4584 0.169264,2.7149 0.429687,3.7696 0.273431,1.0416 0.657545,1.901 1.152344,2.5781 0.507804,0.6771 1.126293,1.1784 1.855469,1.5039 0.729156,0.3125 1.568999,0.4687 2.519531,0.4687 0.690092,0 1.328112,-0.078 1.914063,-0.2343 0.598943,-0.1563 1.139307,-0.3646 1.621093,-0.625 0.481755,-0.2605 0.904932,-0.5534 1.269532,-0.8789 0.377587,-0.3386 0.683576,-0.6901 0.917968,-1.0547 0.182274,0.078 0.351545,0.2409 0.507813,0.4882 0.169252,0.2474 0.253888,0.5404 0.253906,0.879 -1.8e-5,0.4036 -0.143247,0.8398 -0.429687,1.3085 -0.286476,0.4558 -0.722674,0.879 -1.308594,1.2696 -0.585954,0.3906 -1.32163,0.7161 -2.207031,0.9765 -0.87241,0.2605 -1.901055,0.3907 -3.085938,0.3907" />
    <path
       inkscape:connector-curvature="0"
       id="path3272"
       style="font-size:40px;font-style:normal;font-variant:normal;font-weight:normal;font-stretch:normal;line-height:125%;letter-spacing:0px;word-spacing:0px;fill:#000000;fill-opacity:1;stroke:none;font-family:Droid Serif;-inkscape-font-specification:Droid Serif"
       d="m 71.709464,1016.291 4.003906,11.8555 c 0.156227,0.4818 0.318987,1.0026 0.488281,1.5625 0.182268,0.5469 0.351539,1.0937 0.507813,1.6406 0.156226,0.5339 0.299455,1.0417 0.429687,1.5234 0.130184,0.4818 0.22784,0.892 0.292969,1.2305 l 0.117188,0 c 0.117162,-0.664 0.305964,-1.4778 0.566406,-2.4414 0.260391,-0.9765 0.592422,-2.1094 0.996094,-3.3984 l 1.992187,-6.4453 c 0.104138,-0.3386 0.188774,-0.6966 0.253906,-1.0743 0.0781,-0.3906 0.117159,-0.6966 0.117188,-0.9179 -2.9e-5,-0.6901 -0.221383,-1.1914 -0.664063,-1.5039 -0.429715,-0.3125 -1.093777,-0.4688 -1.992187,-0.4688 l -0.273438,0 0,-1.6797 8.554688,0 0,1.6797 -0.507813,0 c -0.390658,0 -0.729199,0.039 -1.015625,0.1172 -0.286491,0.078 -0.546907,0.2344 -0.78125,0.4688 -0.221386,0.2213 -0.429719,0.5338 -0.625,0.9375 -0.195343,0.4036 -0.390656,0.9375 -0.585937,1.6015 l -5.15625,16.6406 -3.203125,0 -4.765625,-14.082 -0.722656,-2.6367 -5.664063,16.7187 -3.164062,0 -5.234375,-17.6367 c -0.156253,-0.4166 -0.319013,-0.7617 -0.488282,-1.0351 -0.169273,-0.2735 -0.364585,-0.4883 -0.585937,-0.6446 -0.221356,-0.1692 -0.475262,-0.2864 -0.761719,-0.3515 -0.286459,-0.065 -0.625,-0.098 -1.015625,-0.098 l -0.117187,0 0,-1.6797 9.882812,0 0,1.6797 -0.527344,0 c -0.794279,0 -1.393237,0.1172 -1.796875,0.3516 -0.403653,0.2344 -0.605475,0.6771 -0.605468,1.3281 -7e-6,0.2214 0.03254,0.4883 0.09766,0.8008 0.07812,0.3125 0.156243,0.6185 0.234375,0.918 l 1.875,6.7187 c 0.130199,0.4818 0.266918,1.0091 0.410156,1.582 0.14322,0.573 0.273428,1.1459 0.390625,1.7188 0.130198,0.5599 0.247386,1.0872 0.351563,1.582 0.104156,0.4948 0.188791,0.9115 0.253906,1.25 l 0.117187,0 c 0.06509,-0.3385 0.149729,-0.7291 0.253907,-1.1719 0.117176,-0.4557 0.247384,-0.9375 0.390625,-1.4453 0.156238,-0.5208 0.318998,-1.0481 0.488281,-1.582 0.169259,-0.5338 0.338529,-1.0417 0.507812,-1.5234 l 4.160157,-12.0899 2.519531,0" />
    <path
       inkscape:connector-curvature="0"
       id="path3274"
       style="font-size:40px;font-style:normal;font-variant:normal;font-weight:normal;font-stretch:normal;line-height:125%;letter-spacing:0px;word-spacing:0px;fill:#000000;fill-opacity:1;stroke:none;font-family:Droid Serif;-inkscape-font-specification:Droid Serif"
       d="m 118.5454,1017.0137 c -2e-5,0.2865 -0.0456,0.5599 -0.13672,0.8203 -0.0781,0.2474 -0.20184,0.4688 -0.37109,0.664 -0.16929,0.1824 -0.39065,0.3321 -0.66406,0.4493 -0.26044,0.1042 -0.57294,0.1562 -0.9375,0.1562 -2e-5,-0.1562 -0.0195,-0.3125 -0.0586,-0.4687 -0.0391,-0.1563 -0.11069,-0.2995 -0.21484,-0.4297 -0.0912,-0.1432 -0.22137,-0.2539 -0.39063,-0.3321 -0.16929,-0.091 -0.39064,-0.1367 -0.66406,-0.1367 -0.33856,0 -0.64455,0.039 -0.91797,0.1172 -0.27345,0.078 -0.54038,0.2019 -0.80078,0.3711 0.45571,0.5599 0.82681,1.224 1.11328,1.9922 0.29946,0.7552 0.4492,1.7057 0.44922,2.8516 -2e-5,0.9896 -0.14976,1.9075 -0.44922,2.7539 -0.29949,0.8333 -0.74871,1.556 -1.34765,2.1679 -0.58596,0.612 -1.33465,1.0938 -2.2461,1.4453 -0.89845,0.3386 -1.95313,0.5079 -3.16406,0.5079 -0.15626,0 -0.33204,0 -0.52734,0 -0.19533,-0.013 -0.39064,-0.02 -0.58594,-0.02 -0.19532,-0.013 -0.37761,-0.026 -0.54688,-0.039 -0.16928,-0.026 -0.30599,-0.046 -0.41015,-0.059 -0.26043,0.1302 -0.50782,0.2734 -0.74219,0.4297 -0.23438,0.1562 -0.44272,0.332 -0.625,0.5273 -0.16928,0.1953 -0.306,0.4167 -0.41016,0.6641 -0.10417,0.2474 -0.15625,0.5208 -0.15625,0.8203 0,0.3255 0.0586,0.5859 0.17579,0.7812 0.1302,0.1953 0.30598,0.3516 0.52734,0.4688 0.22135,0.1041 0.48176,0.1758 0.78125,0.2148 0.31249,0.026 0.64452,0.039 0.99609,0.039 l 4.53125,0 c 1.1979,0 2.21353,0.1497 3.04688,0.4492 0.83331,0.2995 1.5104,0.7162 2.03125,1.25 0.53383,0.5208 0.91795,1.1523 1.15234,1.8945 0.24738,0.7292 0.37108,1.5235 0.3711,2.3828 -2e-5,1.1459 -0.21487,2.181 -0.64454,3.1055 -0.41668,0.9245 -1.06121,1.7057 -1.93359,2.3438 -0.87241,0.651 -1.97918,1.1523 -3.32031,1.5039 -1.32814,0.3515 -2.89715,0.5273 -4.70703,0.5273 -2.78647,0 -4.8698,-0.5143 -6.25,-1.543 -1.380214,-1.0286 -2.070317,-2.4609 -2.070316,-4.2968 -10e-7,-0.7813 0.136718,-1.4649 0.410156,-2.0508 0.273436,-0.5859 0.638019,-1.0872 1.09375,-1.5039 0.46875,-0.4167 1.0026,-0.7552 1.60156,-1.0156 0.59896,-0.2605 1.23047,-0.4493 1.89453,-0.5664 -0.27344,-0.1172 -0.54037,-0.2735 -0.80078,-0.4688 -0.26042,-0.1953 -0.49479,-0.4297 -0.70312,-0.7031 -0.20834,-0.2735 -0.37761,-0.586 -0.50781,-0.9375 -0.13022,-0.3516 -0.19532,-0.7422 -0.19532,-1.1719 0,-0.7943 0.20833,-1.4779 0.625,-2.0508 0.41666,-0.5859 1.08073,-1.1523 1.99219,-1.6992 -0.57292,-0.2344 -1.08724,-0.5534 -1.54297,-0.957 -0.44271,-0.4167 -0.82032,-0.8854 -1.13281,-1.4063 -0.29948,-0.5338 -0.53386,-1.1132 -0.70313,-1.7383 -0.15625,-0.6249 -0.23437,-1.2695 -0.23437,-1.9336 0,-1.1588 0.15625,-2.1939 0.46875,-3.1054 0.3125,-0.9115 0.78124,-1.6862 1.40625,-2.3242 0.62499,-0.638 1.40624,-1.1263 2.34375,-1.4649 0.93749,-0.3385 2.03775,-0.5078 3.30078,-0.5078 0.48176,0 0.95702,0.039 1.42578,0.1172 0.46874,0.065 0.89843,0.1628 1.28906,0.293 0.40364,0.1172 0.76171,0.2539 1.07422,0.4101 0.32551,0.1563 0.58593,0.319 0.78125,0.4883 0.1953,-0.2083 0.42316,-0.4362 0.6836,-0.6836 0.2604,-0.2604 0.55337,-0.4948 0.8789,-0.7031 0.32551,-0.2214 0.67707,-0.4036 1.05469,-0.5469 0.39061,-0.1432 0.80727,-0.2148 1.25,-0.2148 0.40363,0 0.74868,0.059 1.03516,0.1757 0.29946,0.1042 0.54685,0.254 0.74218,0.4493 0.1953,0.1823 0.33852,0.4036 0.42969,0.664 0.10415,0.2474 0.15623,0.5079 0.15625,0.7813 m -16.875,24.1211 c 0,0.5859 0.0781,1.1328 0.23438,1.6406 0.15624,0.5078 0.42968,0.944 0.82031,1.3086 0.39062,0.3646 0.91796,0.651 1.58203,0.8594 0.66406,0.2083 1.5039,0.3125 2.51953,0.3125 1.43228,0 2.61067,-0.1237 3.53516,-0.3711 0.93748,-0.2344 1.67967,-0.5664 2.22656,-0.9961 0.54686,-0.4297 0.93097,-0.944 1.15234,-1.543 0.22134,-0.5859 0.33202,-1.2305 0.33204,-1.9336 -2e-5,-0.612 -0.0912,-1.1198 -0.27344,-1.5234 -0.16929,-0.3907 -0.42971,-0.7032 -0.78125,-0.9375 -0.33856,-0.2214 -0.76174,-0.3776 -1.26953,-0.4688 -0.50783,-0.091 -1.09377,-0.1367 -1.75782,-0.1367 l -3.92578,0 c -0.5599,0 -1.10678,0.052 -1.64062,0.1563 -0.52084,0.091 -0.98959,0.2734 -1.40625,0.5468 -0.40365,0.2735 -0.72917,0.6576 -0.97656,1.1524 -0.2474,0.4948 -0.3711,1.1393 -0.3711,1.9336 m 2.32422,-18.0664 c -1e-5,1.7057 0.27994,2.9557 0.83984,3.75 0.57291,0.7942 1.5039,1.1914 2.79297,1.1914 0.65103,0 1.19791,-0.098 1.64063,-0.293 0.45571,-0.1953 0.82681,-0.4948 1.11328,-0.8984 0.28644,-0.4037 0.48827,-0.918 0.60547,-1.543 0.13019,-0.638 0.1953,-1.3932 0.19531,-2.2656 -1e-5,-1.7969 -0.27345,-3.125 -0.82031,-3.9844 -0.54689,-0.8594 -1.47137,-1.2891 -2.77344,-1.2891 -1.28907,0 -2.21355,0.4428 -2.77344,1.3282 -0.54688,0.8724 -0.82032,2.207 -0.82031,4.0039" />
    <path
       inkscape:connector-curvature="0"
       id="path3276"
       style="font-size:40px;font-style:normal;font-variant:normal;font-weight:normal;font-stretch:normal;line-height:125%;letter-spacing:0px;word-spacing:0px;fill:#000000;fill-opacity:1;stroke:none;font-family:Droid Serif;-inkscape-font-specification:Droid Serif"
       d="m 124.95165,1031.8184 c 0,1.25 0.26041,2.1875 0.78125,2.8125 0.53385,0.6119 1.35416,0.9179 2.46094,0.9179 0.80728,0 1.53645,-0.1302 2.1875,-0.3906 0.66405,-0.2604 1.22394,-0.6315 1.67969,-1.1133 0.46873,-0.4817 0.82681,-1.0677 1.07422,-1.7578 0.24738,-0.6901 0.37107,-1.4583 0.37109,-2.3047 l 0,-3.2422 -2.55859,0.1172 c -1.13283,0.052 -2.08335,0.1953 -2.85157,0.4297 -0.75521,0.2214 -1.36719,0.5404 -1.83593,0.957 -0.46876,0.4037 -0.8073,0.905 -1.01563,1.5039 -0.19532,0.599 -0.29297,1.2891 -0.29297,2.0704 m 4.84375,-14.043 c -0.76824,0 -1.39324,0.1107 -1.875,0.332 -0.46876,0.2084 -0.83985,0.5079 -1.11328,0.8985 -0.26042,0.3906 -0.43621,0.8528 -0.52734,1.3867 -0.0912,0.5338 -0.13673,1.1133 -0.13672,1.7383 -1.10678,0 -1.95313,-0.1888 -2.53906,-0.5664 -0.57293,-0.3776 -0.85938,-1.0287 -0.85938,-1.9532 0,-0.6901 0.1888,-1.276 0.56641,-1.7578 0.3776,-0.4817 0.89192,-0.8724 1.54297,-1.1719 0.66405,-0.3124 1.43228,-0.5403 2.30468,-0.6836 0.87239,-0.1432 1.80338,-0.2148 2.79297,-0.2148 1.22395,0 2.29165,0.1237 3.20313,0.3711 0.91144,0.2344 1.67316,0.625 2.28515,1.1719 0.61196,0.5469 1.06769,1.263 1.36719,2.1484 0.31248,0.8724 0.46873,1.9466 0.46875,3.2227 l 0,10.3711 c -2e-5,0.5599 0.0455,1.0221 0.13672,1.3867 0.0911,0.3646 0.23436,0.6575 0.42969,0.8789 0.19529,0.2213 0.4492,0.3776 0.76172,0.4687 0.3255,0.091 0.70961,0.1368 1.15234,0.1368 l 0.11719,0 0,1.6796 -5.41016,0 -0.625,-3.4375 -0.33203,0 c -0.41668,0.5599 -0.82033,1.0743 -1.21094,1.543 -0.39064,0.4688 -0.82032,0.8724 -1.28906,1.2109 -0.46876,0.3386 -1.00262,0.599 -1.60156,0.7813 -0.58595,0.1953 -1.29559,0.293 -2.12891,0.293 -0.88542,0 -1.71225,-0.1302 -2.48047,-0.3907 -0.75521,-0.2474 -1.41276,-0.6315 -1.97265,-1.1523 -0.54688,-0.5339 -0.97657,-1.1979 -1.28907,-1.9922 -0.3125,-0.8073 -0.46875,-1.7578 -0.46875,-2.8516 0,-2.1223 0.75521,-3.6979 2.26563,-4.7265 1.51041,-1.0286 3.79556,-1.5885 6.85547,-1.6797 l 3.32031,-0.1172 0,-2.4023 c -2e-5,-0.7162 -0.0391,-1.3737 -0.11719,-1.9727 -0.0781,-0.612 -0.24741,-1.1328 -0.50781,-1.5625 -0.26043,-0.4427 -0.63804,-0.7812 -1.13281,-1.0156 -0.48179,-0.2474 -1.13283,-0.3711 -1.95313,-0.3711" />
    <path
       inkscape:connector-curvature="0"
       id="path3278"
       style="font-size:40px;font-style:normal;font-variant:normal;font-weight:normal;font-stretch:normal;line-height:125%;letter-spacing:0px;word-spacing:0px;fill:#000000;fill-opacity:1;stroke:none;font-family:Droid Serif;-inkscape-font-specification:Droid Serif"
       d="m 153.44775,1035.9395 0,1.6796 -10.76172,0 0,-1.6796 0.52734,0 c 0.45573,0 0.87239,-0.033 1.25,-0.098 0.3776,-0.065 0.70312,-0.1953 0.97656,-0.3906 0.27344,-0.2084 0.48177,-0.5013 0.625,-0.8789 0.15625,-0.3776 0.23437,-0.8789 0.23438,-1.5039 l 0,-12.4805 c -1e-5,-0.5859 -0.0781,-1.0547 -0.23438,-1.4063 -0.15625,-0.3645 -0.3711,-0.6445 -0.64453,-0.8398 -0.27344,-0.1953 -0.59896,-0.3255 -0.97656,-0.3906 -0.37761,-0.065 -0.78776,-0.098 -1.23047,-0.098 l -0.11719,0 0,-1.6797 6.26953,0 0.52735,3.2422 0.19531,0 c 0.40364,-0.7422 0.82681,-1.3476 1.26953,-1.8164 0.4427,-0.4817 0.91145,-0.8528 1.40625,-1.1133 0.5078,-0.2734 1.03515,-0.4557 1.58203,-0.5468 0.55989,-0.1042 1.15233,-0.1563 1.77735,-0.1563 0.65102,0 1.26951,0.065 1.85547,0.1953 0.58592,0.1302 1.12628,0.3386 1.62109,0.625 0.50779,0.2865 0.95701,0.6641 1.34766,1.1328 0.40362,0.4558 0.72914,1.0157 0.97656,1.6797 l 0.33203,0 c 0.40362,-0.7422 0.83982,-1.3476 1.30859,-1.8164 0.46873,-0.4817 0.96352,-0.8528 1.48438,-1.1133 0.53383,-0.2734 1.08721,-0.4557 1.66015,-0.5468 0.58592,-0.1042 1.19138,-0.1563 1.81641,-0.1563 1.0156,0 1.92705,0.1563 2.73438,0.4688 0.80726,0.2995 1.49085,0.7682 2.05078,1.4062 0.55986,0.625 0.98955,1.4323 1.28906,2.4219 0.29944,0.9896 0.44918,2.168 0.44922,3.5351 l 0,9.4532 c -4e-5,0.625 0.0781,1.1263 0.23437,1.5039 0.15622,0.3776 0.37106,0.6705 0.64453,0.8789 0.27341,0.1953 0.59893,0.3255 0.97657,0.3906 0.37756,0.065 0.78772,0.098 1.23047,0.098 l 0.11718,0 0,1.6796 -6.95312,0 0,-13.8086 c -3e-5,-0.8723 -0.0782,-1.6471 -0.23438,-2.3242 -0.14326,-0.677 -0.38414,-1.25 -0.72265,-1.7187 -0.32555,-0.4688 -0.75524,-0.8203 -1.28907,-1.0547 -0.53388,-0.2474 -1.18492,-0.3711 -1.95312,-0.3711 -0.83336,0 -1.53648,0.1628 -2.10938,0.4883 -0.55991,0.3125 -1.01564,0.7422 -1.36718,1.289 -0.35159,0.5469 -0.60549,1.1784 -0.76172,1.8946 -0.14325,0.7161 -0.21487,1.4779 -0.21485,2.2851 l 0,8.7696 c -2e-5,0.625 0.0781,1.1263 0.23438,1.5039 0.15623,0.3776 0.37107,0.6705 0.64453,0.8789 0.27342,0.1953 0.59894,0.3255 0.97656,0.3906 0.37758,0.065 0.78774,0.098 1.23047,0.098 l 0.11719,0 0,1.6796 -6.95313,0 0,-13.8086 c -1e-5,-0.8723 -0.0781,-1.6471 -0.23437,-2.3242 -0.14325,-0.677 -0.38413,-1.25 -0.72266,-1.7187 -0.32553,-0.4688 -0.75522,-0.8203 -1.28906,-1.0547 -0.53387,-0.2474 -1.18491,-0.3711 -1.95312,-0.3711 -0.87241,0 -1.60809,0.1758 -2.20704,0.5273 -0.58594,0.3516 -1.0612,0.8269 -1.42578,1.4258 -0.36459,0.599 -0.62501,1.2891 -0.78125,2.0703 -0.15626,0.7813 -0.23438,1.6016 -0.23437,2.461 l 0,8.4375 c -1e-5,0.5859 0.0846,1.0612 0.2539,1.4258 0.18229,0.3515 0.42317,0.6184 0.72266,0.8007 0.29947,0.1823 0.64452,0.306 1.03516,0.3711 0.40363,0.052 0.82681,0.078 1.26953,0.078 l 0.11719,0" />
    <path
       inkscape:connector-curvature="0"
       id="path3280"
       style="font-size:40px;font-style:normal;font-variant:normal;font-weight:normal;font-stretch:normal;line-height:125%;letter-spacing:0px;word-spacing:0px;fill:#000000;fill-opacity:1;stroke:none;font-family:Droid Serif;-inkscape-font-specification:Droid Serif"
       d="m 190.38134,1017.9316 c -1.48439,10e-5 -2.63022,0.6055 -3.4375,1.8164 -0.79428,1.198 -1.26303,2.9558 -1.40625,5.2735 l 9.19922,0 c -2e-5,-1.0547 -0.0781,-2.0182 -0.23438,-2.8906 -0.15626,-0.8724 -0.40366,-1.6211 -0.74218,-2.2461 -0.33856,-0.625 -0.78778,-1.1068 -1.34766,-1.4453 -0.54689,-0.3386 -1.22397,-0.5078 -2.03125,-0.5079 m 0.48828,20.0782 c -1.44532,0 -2.7474,-0.2409 -3.90625,-0.7227 -1.14584,-0.4948 -2.11589,-1.2109 -2.91016,-2.1484 -0.79427,-0.9375 -1.40625,-2.0834 -1.83593,-3.4375 -0.41667,-1.3672 -0.62501,-2.9167 -0.625,-4.6485 -10e-6,-3.7369 0.76822,-6.5494 2.30468,-8.4375 1.53646,-1.888 3.72395,-2.832 6.5625,-2.832 1.28905,0 2.44791,0.2018 3.47657,0.6055 1.02863,0.4036 1.90102,1.0091 2.61718,1.8164 0.71613,0.7943 1.26301,1.7904 1.64063,2.9883 0.3906,1.1849 0.58592,2.5651 0.58594,4.1406 l 0,1.8359 -13.32032,0 c 0.026,1.4584 0.16927,2.7149 0.42969,3.7696 0.27343,1.0416 0.65755,1.901 1.15235,2.5781 0.5078,0.6771 1.12629,1.1784 1.85546,1.5039 0.72916,0.3125 1.569,0.4687 2.51954,0.4687 0.69009,0 1.32811,-0.078 1.91406,-0.2343 0.59894,-0.1563 1.13931,-0.3646 1.62109,-0.625 0.48176,-0.2605 0.90493,-0.5534 1.26953,-0.8789 0.37759,-0.3386 0.68358,-0.6901 0.91797,-1.0547 0.18228,0.078 0.35155,0.2409 0.50781,0.4882 0.16926,0.2474 0.25389,0.5404 0.25391,0.879 -2e-5,0.4036 -0.14325,0.8398 -0.42969,1.3085 -0.28647,0.4558 -0.72267,0.879 -1.30859,1.2696 -0.58595,0.3906 -1.32163,0.7161 -2.20703,0.9765 -0.87241,0.2605 -1.90106,0.3907 -3.08594,0.3907" />
  </g>
</svg>
