<?xml version="1.0" encoding="UTF-8" standalone="no"?>
<!-- Created with Inkscape (http://www.inkscape.org/) -->

<svg
   xmlns:dc="http://purl.org/dc/elements/1.1/"
   xmlns:cc="http://creativecommons.org/ns#"
   xmlns:rdf="http://www.w3.org/1999/02/22-rdf-syntax-ns#"
   xmlns:svg="http://www.w3.org/2000/svg"
   xmlns="http://www.w3.org/2000/svg"
   xmlns:sodipodi="http://sodipodi.sourceforge.net/DTD/sodipodi-0.dtd"
   xmlns:inkscape="http://www.inkscape.org/namespaces/inkscape"
   width="140"
   height="35"
   id="svg3131"
   version="1.1"
   inkscape:version="0.48.3.1 r9886"
   sodipodi:docname="menu_new_game.svg">
  <defs
     id="defs3133" />
  <sodipodi:namedview
     id="base"
     pagecolor="#ffffff"
     bordercolor="#666666"
     borderopacity="1.0"
     inkscape:pageopacity="0.0"
     inkscape:pageshadow="2"
     inkscape:zoom="4.2053846"
     inkscape:cx="102.23693"
     inkscape:cy="32.857143"
     inkscape:document-units="px"
     inkscape:current-layer="layer1"
     showgrid="false"
     inkscape:window-width="1215"
     inkscape:window-height="776"
     inkscape:window-x="65"
     inkscape:window-y="24"
     inkscape:window-maximized="1" />
  <metadata
     id="metadata3136">
    <rdf:RDF>
      <cc:Work
         rdf:about="">
        <dc:format>image/svg+xml</dc:format>
        <dc:type
           rdf:resource="http://purl.org/dc/dcmitype/StillImage" />
        <dc:title />
      </cc:Work>
    </rdf:RDF>
  </metadata>
  <g
     inkscape:label="Layer 1"
     inkscape:groupmode="layer"
     id="layer1"
     transform="translate(0,-1017.3622)">
    <path
       inkscape:connector-curvature="0"
       id="path3268"
       style="font-size:40px;font-style:normal;font-variant:normal;font-weight:normal;font-stretch:normal;line-height:125%;letter-spacing:0px;word-spacing:0px;fill:#ffffff;fill-opacity:1;stroke:#000000;stroke-width:0.7085582;font-family:Droid Serif;-inkscape-font-specification:Droid Serif"
       d="m 15.707367,1044.3697 -10.6283727,-16.33 0,13.1056 c -5.5e-6,0.4429 0.059964,0.7981 0.1799074,1.0656 0.1291584,0.2676 0.2952266,0.4751 0.498205,0.6228 0.212192,0.1383 0.4612943,0.2306 0.7473074,0.2767 0.2859996,0.046 0.5858441,0.07 0.8995363,0.07 l 0.3736539,0 0,1.1901 -7.11325986,0 0,-1.1901 0.35981466,0 c 0.3229089,0 0.6227543,-0.023 0.8995369,-0.07 0.2860039,-0.046 0.5351062,-0.1384 0.7473075,-0.2767 0.2121951,-0.1477 0.3782633,-0.3552 0.498205,-0.6228 0.1199345,-0.2675 0.1799036,-0.6227 0.1799073,-1.0656 l 0,-13.8944 c -3.7e-6,-0.4151 -0.064586,-0.7473 -0.1937464,-0.9964 -0.1199417,-0.2583 -0.2860098,-0.4567 -0.498205,-0.5951 -0.2122013,-0.1384 -0.4613035,-0.226 -0.7473075,-0.2629 -0.2767825,-0.046 -0.5720149,-0.07 -0.8856978,-0.07 l -0.35981466,0 0,-1.1901 5.18963546,0 10.1440071,15.6658 0,-12.552 c -1.7e-5,-0.4152 -0.0646,-0.7473 -0.193747,-0.9965 -0.119954,-0.2582 -0.286022,-0.4566 -0.498205,-0.595 -0.212214,-0.1384 -0.461316,-0.226 -0.747307,-0.2629 -0.276795,-0.046 -0.572027,-0.07 -0.885698,-0.07 l -0.373654,0 0,-1.1901 7.11326,0 0,1.1901 -0.359814,0 c -0.322931,10e-5 -0.627389,0.023 -0.913376,0.07 -0.2768,0.046 -0.521289,0.1429 -0.733469,0.2906 -0.212216,0.1384 -0.378285,0.3413 -0.498205,0.6089 -0.119956,0.2676 -0.179925,0.6228 -0.179907,1.0656 l 0,17.0081 -2.020498,0" />
    <path
       inkscape:connector-curvature="0"
       id="path3270"
       style="font-size:40px;font-style:normal;font-variant:normal;font-weight:normal;font-stretch:normal;line-height:125%;letter-spacing:0px;word-spacing:0px;fill:#ffffff;fill-opacity:1;stroke:#000000;stroke-width:0.7085582;font-family:Droid Serif;-inkscape-font-specification:Droid Serif"
       d="m 29.020512,1030.42 c -1.051773,10e-5 -1.863662,0.429 -2.435669,1.287 -0.562792,0.8489 -0.894928,2.0944 -0.99641,3.7366 l 6.518182,0 c -1.1e-5,-0.7473 -0.05537,-1.43 -0.166068,-2.0482 -0.110723,-0.6181 -0.286017,-1.1486 -0.525883,-1.5914 -0.239887,-0.4429 -0.558184,-0.7843 -0.954893,-1.0241 -0.387502,-0.2399 -0.867254,-0.3598 -1.439259,-0.3599 m 0.345976,14.2266 c -1.024095,0 -1.946696,-0.1707 -2.767806,-0.5121 -0.811894,-0.3506 -1.499232,-0.858 -2.062015,-1.5223 -0.56279,-0.6642 -0.996412,-1.4762 -1.300869,-2.4356 -0.295234,-0.9688 -0.44285,-2.0667 -0.442849,-3.2938 -1e-6,-2.6478 0.544334,-4.6406 1.633006,-5.9784 1.088665,-1.3378 2.638635,-2.0067 4.649913,-2.0067 0.913367,0 1.734482,0.143 2.463347,0.4291 0.728845,0.2859 1.346987,0.715 1.85443,1.287 0.507418,0.5628 0.89491,1.2686 1.162478,2.1174 0.276767,0.8395 0.415157,1.8175 0.415171,2.9338 l 0,1.3009 -9.438217,0 c 0.01845,1.0333 0.119933,1.9236 0.304458,2.671 0.193742,0.738 0.465909,1.3469 0.816503,1.8267 0.359809,0.4798 0.798044,0.835 1.314708,1.0656 0.516649,0.2214 1.111727,0.3321 1.785234,0.3321 0.488971,0 0.941045,-0.055 1.356225,-0.166 0.424386,-0.1108 0.807266,-0.2584 1.148639,-0.4429 0.341352,-0.1846 0.641197,-0.3921 0.899538,-0.6227 0.267542,-0.2399 0.484353,-0.489 0.650433,-0.7473 0.129152,0.055 0.24909,0.1706 0.359815,0.3459 0.119925,0.1753 0.179895,0.3829 0.179908,0.6228 -1.3e-5,0.286 -0.101499,0.595 -0.304459,0.9271 -0.202985,0.323 -0.512056,0.6229 -0.927215,0.8996 -0.415182,0.2768 -0.936452,0.5074 -1.56381,0.6919 -0.618153,0.1846 -1.347008,0.2769 -2.186566,0.2769" />
    <path
       inkscape:connector-curvature="0"
       id="path3272"
       style="font-size:40px;font-style:normal;font-variant:normal;font-weight:normal;font-stretch:normal;line-height:125%;letter-spacing:0px;word-spacing:0px;fill:#ffffff;fill-opacity:1;stroke:#000000;stroke-width:0.7085582;font-family:Droid Serif;-inkscape-font-specification:Droid Serif"
       d="m 49.889766,1029.2575 2.837001,8.4004 c 0.110695,0.3413 0.22602,0.7104 0.345975,1.1071 0.129148,0.3875 0.249086,0.7749 0.359815,1.1624 0.110695,0.3783 0.212181,0.7381 0.304458,1.0795 0.09224,0.3413 0.161438,0.632 0.207586,0.8718 l 0.08304,0 c 0.08302,-0.4705 0.216793,-1.0471 0.401331,-1.7298 0.184502,-0.6919 0.419766,-1.4947 0.705791,-2.408 l 1.41158,-4.5669 c 0.07379,-0.2399 0.133758,-0.4936 0.179907,-0.7612 0.05534,-0.2767 0.08301,-0.4936 0.08304,-0.6504 -2.1e-5,-0.4889 -0.156863,-0.8441 -0.470527,-1.0656 -0.304478,-0.2214 -0.775005,-0.3321 -1.411581,-0.3321 l -0.193747,0 0,-1.1902 6.061495,0 0,1.1902 -0.359815,0 c -0.276804,0 -0.51668,0.028 -0.71963,0.083 -0.202995,0.055 -0.387515,0.1661 -0.553561,0.3322 -0.156865,0.1568 -0.304481,0.3782 -0.442849,0.6642 -0.138411,0.286 -0.276802,0.6643 -0.41517,1.1348 l -3.653503,11.7908 -2.269601,0 -3.376723,-9.9779 -0.512044,-1.8682 -4.013318,11.8461 -2.241922,0 -3.70886,-12.4966 c -0.110714,-0.2952 -0.226039,-0.5397 -0.345976,-0.7334 -0.11994,-0.1938 -0.25833,-0.346 -0.41517,-0.4568 -0.156844,-0.1198 -0.336751,-0.2029 -0.539723,-0.249 -0.202973,-0.046 -0.442849,-0.07 -0.719629,-0.07 l -0.08303,0 0,-1.1901 7.002548,0 0,1.1901 -0.373654,0 c -0.562793,0 -0.98719,0.083 -1.273191,0.2492 -0.286011,0.1661 -0.429014,0.4797 -0.429009,0.941 -5e-6,0.1569 0.02306,0.346 0.0692,0.5674 0.05535,0.2215 0.110707,0.4383 0.166068,0.6505 l 1.328547,4.7606 c 0.09225,0.3414 0.189127,0.715 0.290619,1.1209 0.10148,0.406 0.19374,0.8119 0.276781,1.2179 0.09225,0.3967 0.175287,0.7703 0.249103,1.1209 0.0738,0.3506 0.133769,0.6459 0.179907,0.8857 l 0.08303,0 c 0.04612,-0.2398 0.106091,-0.5166 0.179908,-0.8303 0.08303,-0.3229 0.175285,-0.6643 0.27678,-1.0241 0.110704,-0.369 0.226029,-0.7427 0.345976,-1.121 0.119929,-0.3782 0.239867,-0.7381 0.359814,-1.0794 l 2.947713,-8.5664 1.785235,0" />
    <path
       inkscape:connector-curvature="0"
       id="path3274"
       style="font-size:40px;font-style:normal;font-variant:normal;font-weight:normal;font-stretch:normal;line-height:125%;letter-spacing:0px;word-spacing:0px;fill:#ffffff;fill-opacity:1;stroke:#000000;stroke-width:0.7085582;font-family:Droid Serif;-inkscape-font-specification:Droid Serif"
       d="m 83.075755,1029.7696 c -1.4e-5,0.203 -0.03231,0.3967 -0.09687,0.5812 -0.05534,0.1753 -0.143015,0.3322 -0.262939,0.4705 -0.119952,0.1293 -0.276798,0.2353 -0.470525,0.3184 -0.184537,0.074 -0.405961,0.1107 -0.664273,0.1107 -1.4e-5,-0.1107 -0.01382,-0.2215 -0.04152,-0.3321 -0.0277,-0.1108 -0.07843,-0.2123 -0.152226,-0.3045 -0.06462,-0.1015 -0.156854,-0.1799 -0.276785,-0.2353 -0.119951,-0.064 -0.276791,-0.097 -0.470525,-0.097 -0.239889,0 -0.456701,0.028 -0.650435,0.083 -0.193755,0.055 -0.382891,0.143 -0.567399,0.2629 0.322897,0.3967 0.585843,0.8673 0.788823,1.4116 0.212185,0.5351 0.318285,1.2086 0.318299,2.0205 -1.4e-5,0.7012 -0.106114,1.3516 -0.318299,1.9513 -0.212206,0.5905 -0.530504,1.1025 -0.954888,1.5361 -0.415187,0.4336 -0.945677,0.775 -1.591493,1.0241 -0.636604,0.2399 -1.383906,0.3599 -2.24192,0.3599 -0.11072,0 -0.23527,0 -0.373651,0 -0.138403,-0.01 -0.276792,-0.014 -0.415173,-0.014 -0.138396,-0.01 -0.267559,-0.018 -0.387496,-0.028 -0.119945,-0.019 -0.216812,-0.033 -0.290616,-0.042 -0.184529,0.092 -0.35982,0.1938 -0.525884,0.3045 -0.166072,0.1107 -0.313693,0.2353 -0.442849,0.3736 -0.119945,0.1384 -0.216819,0.2953 -0.290623,0.4706 -0.07381,0.1753 -0.110712,0.369 -0.110712,0.5812 0,0.2307 0.04152,0.4152 0.124558,0.5535 0.09225,0.1384 0.216804,0.2492 0.373651,0.3322 0.156839,0.074 0.341355,0.1246 0.553561,0.1522 0.221417,0.018 0.45668,0.028 0.705788,0.028 l 3.210654,0 c 0.848782,0 1.568415,0.106 2.158892,0.3182 0.590449,0.2123 1.070206,0.5075 1.439259,0.8857 0.37825,0.3691 0.650421,0.8165 0.8165,1.3424 0.175283,0.5167 0.262932,1.0795 0.262946,1.6884 -1.4e-5,0.8119 -0.152248,1.5453 -0.456694,2.2004 -0.295242,0.655 -0.751929,1.2086 -1.370061,1.6607 -0.618154,0.4613 -1.402365,0.8165 -2.352633,1.0656 -0.941065,0.2491 -2.0528,0.3736 -3.335205,0.3736 -1.974376,0 -3.450537,-0.3644 -4.42849,-1.0933 -0.977962,-0.7288 -1.466941,-1.7437 -1.46694,-3.0445 -10e-7,-0.5536 0.09687,-1.038 0.29062,-1.4531 0.193745,-0.4152 0.452073,-0.7704 0.774985,-1.0656 0.332137,-0.2953 0.710401,-0.5351 1.1348,-0.7196 0.424398,-0.1846 0.87186,-0.3184 1.342385,-0.4014 -0.193748,-0.083 -0.382884,-0.1938 -0.567399,-0.3321 -0.184523,-0.1384 -0.350588,-0.3045 -0.498202,-0.4982 -0.147621,-0.1938 -0.267559,-0.4152 -0.359813,-0.6643 -0.09227,-0.2491 -0.138395,-0.5259 -0.138395,-0.8304 0,-0.5628 0.147613,-1.0471 0.442848,-1.4531 0.295228,-0.4151 0.765761,-0.8164 1.411583,-1.204 -0.405947,-0.166 -0.770373,-0.3921 -1.093284,-0.678 -0.313686,-0.2953 -0.581245,-0.6274 -0.802662,-0.9965 -0.2122,-0.3782 -0.378272,-0.7888 -0.49821,-1.2317 -0.110712,-0.4428 -0.166065,-0.8995 -0.166065,-1.37 0,-0.8211 0.110713,-1.5546 0.332137,-2.2004 0.221426,-0.6459 0.553555,-1.1948 0.996411,-1.6468 0.442842,-0.4521 0.996403,-0.7981 1.660684,-1.038 0.664266,-0.2398 1.443864,-0.3598 2.338795,-0.3598 0.341355,0 0.678104,0.028 1.010248,0.083 0.332129,0.046 0.63659,0.1154 0.913374,0.2076 0.286002,0.083 0.539716,0.1799 0.761147,0.2906 0.230643,0.1108 0.415166,0.2261 0.553561,0.346 0.138382,-0.1476 0.299834,-0.3091 0.484371,-0.4844 0.184508,-0.1845 0.392095,-0.3506 0.622752,-0.4981 0.230642,-0.1569 0.479743,-0.286 0.747309,-0.3876 0.27677,-0.1014 0.571998,-0.1522 0.885698,-0.1522 0.285995,0 0.530483,0.042 0.733471,0.1245 0.212185,0.074 0.387475,0.18 0.525878,0.3184 0.138381,0.1292 0.239861,0.286 0.30446,0.4705 0.0738,0.1753 0.110698,0.3599 0.110712,0.5536 m -11.95692,17.0912 c 0,0.4151 0.05534,0.8026 0.166072,1.1624 0.110705,0.3598 0.304453,0.6689 0.581237,0.9273 0.276777,0.2583 0.650428,0.4612 1.120961,0.6089 0.470525,0.1476 1.0656,0.2214 1.785233,0.2214 1.014854,0 1.849812,-0.088 2.504867,-0.2629 0.664259,-0.1661 1.190144,-0.4014 1.577648,-0.7058 0.387482,-0.3045 0.659646,-0.6689 0.8165,-1.0933 0.156832,-0.4152 0.235255,-0.8719 0.235269,-1.3701 -1.4e-5,-0.4336 -0.06462,-0.7934 -0.193748,-1.0794 -0.119952,-0.2768 -0.304475,-0.4983 -0.553561,-0.6643 -0.23989,-0.1569 -0.539737,-0.2675 -0.899536,-0.3322 -0.359827,-0.064 -0.775,-0.097 -1.245518,-0.097 l -2.781644,0 c -0.396721,0 -0.784218,0.037 -1.162474,0.1107 -0.369046,0.064 -0.701182,0.1937 -0.99641,0.3875 -0.28601,0.1938 -0.51666,0.4659 -0.69195,0.8165 -0.175297,0.3506 -0.262946,0.8073 -0.262946,1.3701 m 1.646845,-12.8011 c -7e-6,1.2086 0.198354,2.0943 0.595076,2.6571 0.40594,0.5627 1.065601,0.8442 1.978982,0.8442 0.461292,0 0.848789,-0.07 1.162482,-0.2077 0.322897,-0.1383 0.585843,-0.3505 0.788823,-0.6365 0.20296,-0.2861 0.345968,-0.6505 0.429011,-1.0933 0.09225,-0.4521 0.138381,-0.9872 0.138389,-1.6053 -8e-6,-1.2732 -0.193756,-2.2143 -0.581238,-2.8232 -0.387503,-0.609 -1.042551,-0.9134 -1.965144,-0.9134 -0.913381,0 -1.568429,0.3137 -1.965143,0.9411 -0.387497,0.6181 -0.581245,1.5638 -0.581238,2.837" />
    <path
       inkscape:connector-curvature="0"
       id="path3276"
       style="font-size:40px;font-style:normal;font-variant:normal;font-weight:normal;font-stretch:normal;line-height:125%;letter-spacing:0px;word-spacing:0px;fill:#ffffff;fill-opacity:1;stroke:#000000;stroke-width:0.7085582;font-family:Droid Serif;-inkscape-font-specification:Droid Serif"
       d="m 87.614956,1040.2596 c 0,0.8857 0.184516,1.55 0.553561,1.9928 0.378264,0.4336 0.959502,0.6504 1.74372,0.6504 0.572005,0 1.088664,-0.092 1.549971,-0.2768 0.470518,-0.1845 0.867233,-0.4474 1.190158,-0.7888 0.332122,-0.3413 0.585843,-0.7565 0.761147,-1.2455 0.175284,-0.489 0.262925,-1.0333 0.262939,-1.633 l 0,-2.2973 -1.81291,0.083 c -0.802676,0.037 -1.476175,0.1384 -2.020503,0.3045 -0.53511,0.1569 -0.968734,0.3829 -1.300863,0.6781 -0.332144,0.2861 -0.572019,0.6413 -0.719633,1.0656 -0.138396,0.4244 -0.207587,0.9134 -0.207587,1.467 m 3.432079,-9.9503 c -0.544343,0 -0.987191,0.078 -1.328546,0.2353 -0.332144,0.1476 -0.595083,0.3598 -0.788824,0.6366 -0.184523,0.2768 -0.30908,0.6043 -0.373651,0.9826 -0.06462,0.3782 -0.09688,0.7888 -0.09687,1.2316 -0.784218,0 -1.383907,-0.1337 -1.799072,-0.4013 -0.405954,-0.2675 -0.608921,-0.7289 -0.608921,-1.3839 0,-0.489 0.133776,-0.9042 0.401334,-1.2455 0.267552,-0.3414 0.631978,-0.6182 1.093285,-0.8304 0.470518,-0.2214 1.014853,-0.3828 1.633,-0.4844 0.618139,-0.1014 1.277799,-0.1522 1.978981,-0.1522 0.86724,0 1.623768,0.088 2.269605,0.263 0.645808,0.1661 1.185531,0.4428 1.619161,0.8303 0.43361,0.3875 0.756521,0.8949 0.968734,1.5223 0.22141,0.6182 0.332123,1.3793 0.332137,2.2835 l 0,7.3485 c -1.4e-5,0.3967 0.03224,0.7242 0.09687,0.9826 0.06455,0.2583 0.166058,0.4658 0.30446,0.6227 0.138375,0.1568 0.318285,0.2676 0.539723,0.3321 0.230636,0.065 0.5028,0.097 0.8165,0.097 l 0.08304,0 0,1.1901 -3.833413,0 -0.442849,-2.4356 -0.235263,0 c -0.295242,0.3967 -0.581251,0.7612 -0.858021,1.0933 -0.276791,0.3321 -0.581245,0.6181 -0.913374,0.858 -0.332144,0.2399 -0.710415,0.4244 -1.134799,0.5536 -0.41518,0.1383 -0.918001,0.2076 -1.508457,0.2076 -0.627371,0 -1.213228,-0.092 -1.757557,-0.2769 -0.53511,-0.1753 -1.001023,-0.4474 -1.397737,-0.8164 -0.387497,-0.3783 -0.691957,-0.8488 -0.913381,-1.4116 -0.221425,-0.572 -0.332137,-1.2455 -0.332137,-2.0205 0,-1.5038 0.53511,-2.6202 1.605331,-3.349 1.070213,-0.7289 2.689375,-1.1256 4.857499,-1.1902 l 2.352633,-0.083 0,-1.7021 c -1.4e-5,-0.5075 -0.0277,-0.9734 -0.08304,-1.3978 -0.05534,-0.4336 -0.175304,-0.8027 -0.359813,-1.1071 -0.184529,-0.3137 -0.452088,-0.5535 -0.802661,-0.7196 -0.341377,-0.1753 -0.802677,-0.263 -1.383907,-0.263" />
    <path
       inkscape:connector-curvature="0"
       id="path3278"
       style="font-size:40px;font-style:normal;font-variant:normal;font-weight:normal;font-stretch:normal;line-height:125%;letter-spacing:0px;word-spacing:0px;fill:#ffffff;fill-opacity:1;stroke:#000000;stroke-width:0.7085582;font-family:Droid Serif;-inkscape-font-specification:Droid Serif"
       d="m 107.8061,1043.1796 0,1.1901 -7.6253,0 0,-1.1901 0.37365,0 c 0.32291,0 0.61814,-0.023 0.8857,-0.069 0.26755,-0.046 0.4982,-0.1384 0.69195,-0.2768 0.19374,-0.1476 0.34136,-0.3552 0.44285,-0.6227 0.11071,-0.2676 0.16606,-0.6228 0.16607,-1.0656 l 0,-8.8432 c -1e-5,-0.4151 -0.0553,-0.7473 -0.16607,-0.9964 -0.11072,-0.2583 -0.26295,-0.4567 -0.45669,-0.5951 -0.19375,-0.1383 -0.4244,-0.2306 -0.69195,-0.2767 -0.26756,-0.046 -0.55817,-0.07 -0.87186,-0.07 l -0.083,0 0,-1.1901 4.44233,0 0.37366,2.2973 0.13839,0 c 0.286,-0.5259 0.58584,-0.9549 0.89953,-1.2871 0.31368,-0.3413 0.64582,-0.6042 0.99641,-0.7888 0.35981,-0.1937 0.73347,-0.3229 1.12096,-0.3874 0.39672,-0.074 0.8165,-0.1108 1.25936,-0.1108 0.46128,0 0.89952,0.046 1.31471,0.1384 0.41516,0.092 0.79803,0.2399 1.14863,0.4428 0.3598,0.203 0.6781,0.4706 0.9549,0.8027 0.28599,0.323 0.51664,0.7197 0.69195,1.1902 l 0.23526,0 c 0.28599,-0.5259 0.59506,-0.9549 0.92721,-1.2871 0.33213,-0.3413 0.68271,-0.6042 1.05177,-0.7888 0.37825,-0.1937 0.77036,-0.3229 1.17632,-0.3874 0.41516,-0.074 0.84416,-0.1108 1.28703,-0.1108 0.71961,0 1.36543,0.1108 1.93747,0.3322 0.57199,0.2122 1.05635,0.5443 1.45309,0.9964 0.3967,0.4428 0.70116,1.0148 0.91338,1.716 0.21217,0.7012 0.31827,1.5362 0.3183,2.5048 l 0,6.6982 c -3e-5,0.4428 0.0553,0.798 0.16606,1.0656 0.11069,0.2675 0.26292,0.4751 0.45669,0.6227 0.19373,0.1384 0.42437,0.2307 0.69195,0.2768 0.26753,0.046 0.55815,0.069 0.87186,0.069 l 0.083,0 0,1.1901 -4.92669,0 0,-9.7842 c -2e-5,-0.618 -0.0554,-1.167 -0.16607,-1.6468 -0.10151,-0.4797 -0.27218,-0.8857 -0.51204,-1.2178 -0.23067,-0.3322 -0.53513,-0.5812 -0.91338,-0.7473 -0.37828,-0.1753 -0.83958,-0.263 -1.3839,-0.263 -0.59048,0 -1.08868,0.1154 -1.49462,0.346 -0.39673,0.2215 -0.71964,0.5259 -0.96872,0.9134 -0.24913,0.3875 -0.42903,0.8349 -0.53973,1.3424 -0.1015,0.5074 -0.15224,1.0472 -0.15223,1.6191 l 0,6.2138 c -1e-5,0.4428 0.0553,0.798 0.16607,1.0656 0.1107,0.2675 0.26293,0.4751 0.45669,0.6227 0.19373,0.1384 0.42438,0.2307 0.69195,0.2768 0.26754,0.046 0.55816,0.069 0.87186,0.069 l 0.083,0 0,1.1901 -4.92669,0 0,-9.7842 c -1e-5,-0.618 -0.0553,-1.167 -0.16607,-1.6468 -0.1015,-0.4797 -0.27218,-0.8857 -0.51205,-1.2178 -0.23065,-0.3322 -0.53511,-0.5812 -0.91337,-0.7473 -0.37828,-0.1753 -0.83958,-0.263 -1.3839,-0.263 -0.61815,0 -1.13942,0.1246 -1.56382,0.3737 -0.41517,0.2491 -0.75192,0.5859 -1.01024,1.0102 -0.25834,0.4245 -0.44286,0.9134 -0.55356,1.467 -0.11072,0.5536 -0.16608,1.1348 -0.16607,1.7437 l 0,5.9785 c -1e-5,0.4151 0.0599,0.7519 0.1799,1.0102 0.12917,0.2491 0.29984,0.4382 0.51205,0.5674 0.21219,0.1292 0.45668,0.2168 0.73347,0.2629 0.286,0.037 0.58584,0.055 0.89954,0.055 l 0.083,0" />
    <path
       inkscape:connector-curvature="0"
       id="path3280"
       style="font-size:40px;font-style:normal;font-variant:normal;font-weight:normal;font-stretch:normal;line-height:125%;letter-spacing:0px;word-spacing:0px;fill:#ffffff;fill-opacity:1;stroke:#000000;stroke-width:0.7085582;font-family:Droid Serif;-inkscape-font-specification:Droid Serif"
       d="m 133.9757,1030.42 c -1.05177,10e-5 -1.86366,0.429 -2.43567,1.287 -0.56279,0.8489 -0.89493,2.0944 -0.99641,3.7366 l 6.51819,0 c -2e-5,-0.7473 -0.0553,-1.43 -0.16608,-2.0482 -0.11071,-0.6181 -0.28601,-1.1486 -0.52587,-1.5914 -0.23989,-0.4429 -0.55819,-0.7843 -0.9549,-1.0241 -0.3875,-0.2399 -0.86725,-0.3598 -1.43926,-0.3599 m 0.34598,14.2266 c -1.0241,0 -1.9467,-0.1707 -2.76781,-0.5121 -0.81189,-0.3506 -1.49923,-0.858 -2.06202,-1.5223 -0.56278,-0.6642 -0.99641,-1.4762 -1.30086,-2.4356 -0.29523,-0.9688 -0.44286,-2.0667 -0.44285,-3.2938 -1e-5,-2.6478 0.54433,-4.6406 1.633,-5.9784 1.08867,-1.3378 2.63864,-2.0067 4.64991,-2.0067 0.91337,0 1.73449,0.143 2.46336,0.4291 0.72884,0.2859 1.34698,0.715 1.85442,1.287 0.50742,0.5628 0.89492,1.2686 1.16248,2.1174 0.27677,0.8395 0.41516,1.8175 0.41518,2.9338 l 0,1.3009 -9.43823,0 c 0.0184,1.0333 0.11994,1.9236 0.30446,2.671 0.19375,0.738 0.46592,1.3469 0.81651,1.8267 0.35981,0.4798 0.79804,0.835 1.3147,1.0656 0.51665,0.2214 1.11173,0.3321 1.78524,0.3321 0.48897,0 0.94105,-0.055 1.35623,-0.166 0.42438,-0.1108 0.80726,-0.2584 1.14863,-0.4429 0.34136,-0.1846 0.6412,-0.3921 0.89954,-0.6227 0.26754,-0.2399 0.48436,-0.489 0.65043,-0.7473 0.12916,0.055 0.2491,0.1706 0.35982,0.3459 0.11993,0.1753 0.17989,0.3829 0.17991,0.6228 -2e-5,0.286 -0.1015,0.595 -0.30446,0.9271 -0.20298,0.323 -0.51206,0.6229 -0.92722,0.8996 -0.41518,0.2768 -0.93645,0.5074 -1.5638,0.6919 -0.61816,0.1846 -1.34702,0.2769 -2.18657,0.2769" />
  </g>
</svg>
