<?xml version="1.0" encoding="UTF-8" standalone="no"?>
<!-- Created with Inkscape (http://www.inkscape.org/) -->

<svg
   xmlns:dc="http://purl.org/dc/elements/1.1/"
   xmlns:cc="http://creativecommons.org/ns#"
   xmlns:rdf="http://www.w3.org/1999/02/22-rdf-syntax-ns#"
   xmlns:svg="http://www.w3.org/2000/svg"
   xmlns="http://www.w3.org/2000/svg"
   xmlns:sodipodi="http://sodipodi.sourceforge.net/DTD/sodipodi-0.dtd"
   xmlns:inkscape="http://www.inkscape.org/namespaces/inkscape"
   width="200"
   height="50"
   id="svg3131"
   version="1.1"
   inkscape:version="0.48.3.1 r9886"
   sodipodi:docname="menu_undo.svg">
  <defs
     id="defs3133" />
  <sodipodi:namedview
     id="base"
     pagecolor="#ffffff"
     bordercolor="#666666"
     borderopacity="1.0"
     inkscape:pageopacity="0.0"
     inkscape:pageshadow="2"
     inkscape:zoom="4.2053846"
     inkscape:cx="131.42857"
     inkscape:cy="32.857143"
     inkscape:document-units="px"
     inkscape:current-layer="layer1"
     showgrid="false"
     inkscape:window-width="1680"
     inkscape:window-height="999"
     inkscape:window-x="-7"
     inkscape:window-y="23"
     inkscape:window-maximized="1" />
  <metadata
     id="metadata3136">
    <rdf:RDF>
      <cc:Work
         rdf:about="">
        <dc:format>image/svg+xml</dc:format>
        <dc:type
           rdf:resource="http://purl.org/dc/dcmitype/StillImage" />
        <dc:title />
      </cc:Work>
    </rdf:RDF>
  </metadata>
  <g
     inkscape:label="Layer 1"
     inkscape:groupmode="layer"
     id="layer1"
     transform="translate(0,-1002.3622)">
    <path
       inkscape:connector-curvature="0"
       id="path3248"
       style="font-size:40px;font-style:normal;font-variant:normal;font-weight:normal;font-stretch:normal;line-height:125%;letter-spacing:0px;word-spacing:0px;fill:#000000;fill-opacity:1;stroke:none;font-family:Droid Serif;-inkscape-font-specification:Droid Serif"
       d="m 59.652828,1042.0522 c -1.575534,0 -2.988293,-0.1627 -4.238281,-0.4882 -1.250009,-0.3386 -2.311206,-0.8659 -3.183594,-1.5821 -0.859381,-0.7291 -1.516932,-1.6601 -1.972656,-2.7929 -0.455734,-1.1459 -0.683598,-2.5326 -0.683594,-4.1602 l 0,-15.5273 c -4e-6,-0.5859 -0.09115,-1.0547 -0.273437,-1.4063 -0.169275,-0.3645 -0.40365,-0.6445 -0.703125,-0.8398 -0.299483,-0.1953 -0.651045,-0.319 -1.054688,-0.3711 -0.390627,-0.065 -0.807293,-0.098 -1.25,-0.098 l -0.507812,0 0,-1.6797 11.640625,0 0,1.6797 -0.527344,0 c -0.44272,0 -0.865896,0.033 -1.269531,0.098 -0.403656,0.065 -0.755218,0.2018 -1.054688,0.4101 -0.286467,0.1954 -0.520842,0.4818 -0.703125,0.8594 -0.169279,0.3776 -0.253914,0.8789 -0.253906,1.5039 l 0,15.6055 c -8e-6,1.1588 0.162752,2.1484 0.488281,2.9687 0.338533,0.8073 0.800772,1.4649 1.386719,1.9727 0.598947,0.5078 1.302072,0.8789 2.109375,1.1133 0.820299,0.2343 1.718736,0.3515 2.695312,0.3515 1.158838,0 2.154931,-0.1562 2.988282,-0.4687 0.846335,-0.3125 1.542949,-0.7422 2.089843,-1.2891 0.559876,-0.5599 0.970031,-1.2174 1.230469,-1.9726 0.273416,-0.7683 0.410135,-1.6081 0.410156,-2.5196 l 0,-15.9179 c -2.1e-5,-0.5859 -0.09117,-1.0547 -0.273437,-1.4063 -0.169292,-0.3645 -0.403667,-0.6445 -0.703125,-0.8398 -0.2995,-0.1953 -0.651062,-0.319 -1.054688,-0.3711 -0.390644,-0.065 -0.80731,-0.098 -1.25,-0.098 l -0.507812,0 0,-1.6797 10.039062,0 0,1.6797 -0.527343,0 c -0.442736,0 -0.865912,0.033 -1.269532,0.098 -0.403671,0.065 -0.755233,0.2018 -1.054687,0.4101 -0.286483,0.1954 -0.520858,0.4818 -0.703125,0.8594 -0.169295,0.3776 -0.253931,0.8789 -0.253906,1.5039 l 0,15.8399 c -2.5e-5,1.3281 -0.214868,2.526 -0.644532,3.5937 -0.416689,1.0547 -1.041689,1.9531 -1.875,2.6953 -0.820333,0.7292 -1.842467,1.2891 -3.066406,1.6797 -1.223976,0.3906 -2.630224,0.5859 -4.21875,0.5859" />
    <path
       inkscape:connector-curvature="0"
       id="path3250"
       style="font-size:40px;font-style:normal;font-variant:normal;font-weight:normal;font-stretch:normal;line-height:125%;letter-spacing:0px;word-spacing:0px;fill:#000000;fill-opacity:1;stroke:none;font-family:Droid Serif;-inkscape-font-specification:Droid Serif"
       d="m 85.727047,1039.9819 0,1.6797 -10.761719,0 0,-1.6797 0.332031,0 c 0.455728,0 0.878904,-0.033 1.269532,-0.098 0.403642,-0.065 0.748694,-0.1953 1.035156,-0.3906 0.299475,-0.2084 0.53385,-0.5013 0.703125,-0.879 0.182287,-0.3776 0.273433,-0.8789 0.273437,-1.5039 l 0,-12.4804 c -4e-6,-0.5859 -0.09115,-1.0547 -0.273437,-1.4063 -0.169275,-0.3645 -0.40365,-0.6445 -0.703125,-0.8398 -0.299483,-0.1953 -0.651045,-0.3255 -1.054688,-0.3906 -0.390627,-0.065 -0.807293,-0.098 -1.25,-0.098 l -0.117187,0 0,-1.6797 6.464844,0 0.527343,3.2422 0.195313,0 c 0.416658,-0.7422 0.852855,-1.3476 1.308594,-1.8164 0.468739,-0.4818 0.95702,-0.8529 1.464843,-1.1133 0.520822,-0.2734 1.067696,-0.4557 1.640625,-0.5469 0.585924,-0.1041 1.197903,-0.1562 1.835938,-0.1562 1.054672,0 1.992171,0.1563 2.8125,0.4687 0.833315,0.2995 1.536439,0.7683 2.109375,1.4063 0.585917,0.625 1.028625,1.4323 1.328125,2.4219 0.312479,0.9896 0.468728,2.1679 0.46875,3.5351 l 0,9.4531 c -2.2e-5,0.625 0.07159,1.1263 0.214844,1.5039 0.156228,0.3777 0.371071,0.6706 0.644531,0.879 0.273415,0.1953 0.598935,0.3255 0.976562,0.3906 0.377581,0.065 0.787737,0.098 1.230469,0.098 l 0.136719,0 0,1.6797 -6.972656,0 0,-13.8086 c -1.8e-5,-0.8724 -0.07814,-1.6471 -0.234375,-2.3242 -0.156268,-0.6771 -0.410174,-1.25 -0.761719,-1.7187 -0.338558,-0.4688 -0.787776,-0.8203 -1.347656,-1.0547 -0.559911,-0.2474 -1.243504,-0.3711 -2.050782,-0.3711 -0.91147,0 -1.679699,0.1758 -2.304687,0.5273 -0.61199,0.3516 -1.106781,0.8269 -1.484375,1.4258 -0.377613,0.599 -0.651051,1.2891 -0.820313,2.0703 -0.156258,0.7813 -0.234383,1.6016 -0.234375,2.461 l 0,8.4375 c -8e-6,0.5859 0.08463,1.0612 0.253907,1.4257 0.182282,0.3516 0.423168,0.6185 0.722656,0.8008 0.299469,0.1823 0.644521,0.306 1.035156,0.3711 0.403635,0.052 0.826812,0.078 1.269531,0.078 l 0.117188,0" />
    <path
       inkscape:connector-curvature="0"
       id="path3252"
       style="font-size:40px;font-style:normal;font-variant:normal;font-weight:normal;font-stretch:normal;line-height:125%;letter-spacing:0px;word-spacing:0px;fill:#000000;fill-opacity:1;stroke:none;font-family:Droid Serif;-inkscape-font-specification:Droid Serif"
       d="m 119.86767,1037.2671 c -2e-5,0.5859 0.0846,1.0612 0.25391,1.4258 0.18227,0.3515 0.42315,0.625 0.72265,0.8203 0.29946,0.1953 0.64451,0.3255 1.03516,0.3906 0.40362,0.052 0.8268,0.078 1.26953,0.078 l 0.33203,0 0,1.6797 -6.77734,0 -0.42969,-3.5937 -0.15625,0 c -0.29949,0.612 -0.64455,1.1653 -1.03515,1.6601 -0.37762,0.4818 -0.81382,0.8985 -1.3086,1.25 -0.4948,0.3386 -1.0547,0.599 -1.67969,0.7813 -0.62501,0.1953 -1.32813,0.2929 -2.10937,0.2929 -1.31511,0 -2.48048,-0.2148 -3.49609,-0.6445 -1.01564,-0.4427 -1.8685,-1.1133 -2.5586,-2.0117 -0.69011,-0.9115 -1.21094,-2.0638 -1.5625,-3.457 -0.35156,-1.3933 -0.52734,-3.0469 -0.52734,-4.961 0,-1.927 0.17578,-3.5937 0.52734,-5 0.35156,-1.4062 0.87239,-2.5651 1.5625,-3.4765 0.6901,-0.9115 1.54296,-1.582 2.5586,-2.0118 1.01561,-0.4426 2.18098,-0.664 3.49609,-0.664 0.76822,0 1.46483,0.085 2.08984,0.2539 0.62499,0.1693 1.18489,0.4102 1.67969,0.7226 0.5078,0.3126 0.95702,0.6837 1.34766,1.1133 0.39061,0.4297 0.72915,0.905 1.01562,1.4258 l 0.23438,0 c -0.0391,-0.651 -0.0781,-1.263 -0.11719,-1.8359 -0.0261,-0.4948 -0.0521,-0.9831 -0.0781,-1.4649 -0.026,-0.4947 -0.0391,-0.8593 -0.0391,-1.0937 l 0,-3.2813 c -1e-5,-0.5859 -0.0912,-1.0546 -0.27344,-1.4062 -0.16928,-0.3646 -0.40366,-0.6445 -0.70312,-0.8399 -0.29949,-0.1953 -0.65106,-0.3189 -1.05469,-0.3711 -0.39064,-0.065 -0.8073,-0.098 -1.25,-0.098 l -0.33203,0 0,-1.6797 7.36328,0 0,25.9961 m -9.19922,2.2266 c 1.04166,0 1.90754,-0.1693 2.59766,-0.5079 0.70311,-0.3515 1.26301,-0.8789 1.67969,-1.582 0.42967,-0.7031 0.72915,-1.5885 0.89843,-2.6562 0.18228,-1.0677 0.27343,-2.3243 0.27344,-3.7696 -1e-5,-1.3932 -0.0912,-2.6237 -0.27344,-3.6914 -0.16928,-1.0677 -0.46876,-1.9596 -0.89843,-2.6758 -0.41668,-0.7291 -0.97658,-1.2825 -1.67969,-1.6601 -0.70314,-0.3776 -1.58204,-0.5664 -2.63672,-0.5664 -0.87241,0 -1.6211,0.1888 -2.24609,0.5664 -0.62501,0.3776 -1.13933,0.931 -1.54297,1.6601 -0.39063,0.7292 -0.67709,1.6342 -0.85938,2.7149 -0.18229,1.0677 -0.27344,2.2982 -0.27343,3.6914 -1e-5,2.8385 0.3841,4.9609 1.15234,6.3672 0.76822,1.4062 2.03775,2.1094 3.80859,2.1094" />
    <path
       inkscape:connector-curvature="0"
       id="path3254"
       style="font-size:40px;font-style:normal;font-variant:normal;font-weight:normal;font-stretch:normal;line-height:125%;letter-spacing:0px;word-spacing:0px;fill:#000000;fill-opacity:1;stroke:none;font-family:Droid Serif;-inkscape-font-specification:Droid Serif"
       d="m 145.04345,1030.8999 c -2e-5,3.763 -0.8008,6.5625 -2.40234,8.3984 -1.58856,1.836 -3.91929,2.7539 -6.99219,2.7539 -1.44532,0 -2.74089,-0.2278 -3.88672,-0.6835 -1.14584,-0.4558 -2.1224,-1.1459 -2.92968,-2.0704 -0.79428,-0.9244 -1.40626,-2.0833 -1.83594,-3.4765 -0.41667,-1.4063 -0.625,-3.0469 -0.625,-4.9219 0,-3.737 0.78776,-6.5169 2.36328,-8.3398 1.58853,-1.8229 3.93228,-2.7344 7.03125,-2.7344 1.4453,0 2.74087,0.2279 3.88672,0.6836 1.14581,0.4427 2.11587,1.1263 2.91015,2.0508 0.80728,0.9114 1.41926,2.0638 1.83594,3.457 0.42967,1.3802 0.64451,3.0078 0.64453,4.8828 m -14.80468,0 c -10e-6,1.4844 0.0977,2.793 0.29296,3.9258 0.19531,1.1328 0.50781,2.0833 0.9375,2.8515 0.44271,0.7553 1.00911,1.3282 1.69922,1.7188 0.70312,0.3906 1.55598,0.5859 2.5586,0.5859 1.00259,0 1.84894,-0.1953 2.53906,-0.5859 0.69009,-0.3906 1.24998,-0.9635 1.67969,-1.7188 0.42967,-0.7682 0.73566,-1.7187 0.91797,-2.8515 0.19529,-1.1328 0.29295,-2.4414 0.29296,-3.9258 -1e-5,-1.4844 -0.0977,-2.7864 -0.29296,-3.9062 -0.19533,-1.1198 -0.50783,-2.0508 -0.9375,-2.793 -0.42971,-0.7552 -0.99611,-1.3216 -1.69922,-1.6992 -0.69012,-0.3776 -1.53647,-0.5664 -2.53907,-0.5664 -1.00261,0 -1.84896,0.1888 -2.53906,0.5664 -0.69011,0.3776 -1.25001,0.944 -1.67969,1.6992 -0.42969,0.7422 -0.74219,1.6732 -0.9375,2.793 -0.19531,1.1198 -0.29297,2.4218 -0.29296,3.9062" />
  </g>
</svg>
